<?xml version="1.0" encoding="utf-8"?>
<!-- Generator: Adobe Illustrator 24.1.2, SVG Export Plug-In . SVG Version: 6.00 Build 0)  -->
<svg version="1.1" id="Layer_1" xmlns="http://www.w3.org/2000/svg" xmlns:xlink="http://www.w3.org/1999/xlink" x="0px" y="0px"
	 viewBox="0 0 1920 1080" style="enable-background:new 0 0 1920 1080;" xml:space="preserve">
<style type="text/css">
	.st0{opacity:0.5;fill:#A7D97A;enable-background:new    ;}
	.st1{fill:#A7D97A;}
	.st2{opacity:0.25;}
	.st3{fill:none;stroke:#FFFFFF;stroke-width:1.2443;stroke-linecap:round;stroke-linejoin:round;stroke-miterlimit:10;}
	.st4{fill:none;stroke:#FFFFFF;stroke-width:1.1315;stroke-linecap:round;stroke-linejoin:round;stroke-miterlimit:10;}
	.st5{opacity:0.5;}
	.st6{fill:#89CC4E;}
	.st7{opacity:0.2;fill:#6CBF22;enable-background:new    ;}
	.st8{fill:#65A521;}
	.st9{fill:#598C1E;}
	.st10{fill:#73AF2E;}
	.st11{fill:#EBF8FF;}
	.st12{fill:#FFFFFF;}
	.st13{fill:#6CBF22;}
	.st14{fill:none;stroke:#A8A8A8;stroke-width:0.5499;stroke-linecap:round;stroke-miterlimit:10;}
	.st15{fill:#F9DCE0;}
	.st16{clip-path:url(#SVGID_2_);}
	.st17{fill:#E4EFF4;}
	.st18{fill:#EEFFEE;}
	.st19{fill:#8C8C8C;}
	.st20{fill:#DBDBDB;}
	.st21{fill:#222B70;}
	.st22{fill:#366011;}
	.st23{fill:#8F9393;}
	.st24{fill:#B2B2B2;}
	.st25{fill:#A8A8A8;}
	.st26{fill:#F2A181;}
	.st27{fill:#2C1E56;}
	.st28{fill:#FFCCB0;}
	.st29{fill:#7C7C7C;}
	.st30{fill:#FECB17;}
	.st31{fill:#DBAC14;}
	.st32{opacity:0.2;fill:#FFFFFF;enable-background:new    ;}
	.st33{opacity:8.000000e-02;fill:#FFFFFF;enable-background:new    ;}
	.st34{opacity:0.8;}
	.st35{fill:#5FB0E7;}
	.st36{fill:#894A2E;}
	.st37{fill:#AA5D37;}
	.st38{fill:#F4B798;}
	.st39{fill:#52821A;}
	.st40{fill:#0D2D47;}
	.st41{fill:#FF8594;}
	.st42{fill:#BA8B45;}
	.st43{opacity:0.47;fill:url(#SVGID_3_);enable-background:new    ;}
</style>
<g id="Layer_2_1_">
	<g>
		<path class="st0" d="M460.5,852c0,0-79.6-41.4-72-123.7c8.5-91.6,80.8-105,90.6-160.8c19.9-114.1-58.6-100.6-56.7-236.2
			C424.5,191.5,550.3,55,735.1,128.2c164.4,64.9,200.7,130.6,311.8,132.9c111.1,2.2,196-64.3,291.1,9.1
			c64.5,49.8,103.6,157.2,27.6,281.9c-75.9,124.6-18,154.2,12,208.7s12,91.3,12,91.3h-929V852z"/>
		<g>
			<path class="st1" d="M852.6,881.4c-141.4,0.3-338.8,0.6-472.4,0c-4.5,0-18.6,0.1,5.7-15.6c20.7-13.3,85.9-1.3,85.9-1.3
				s-15.1-6.1-15.1-13.9s6-14.8,13.2-18c7.2-3.3,15.3-3.4,23.1-3c16,0.9,31.8,4.5,46.6,10.5c-6.3-3.9-8.2-13.3-3.9-19.3
				c4.3-6,13.9-7.3,19.6-2.5c-10-13.6-25.5-73.8,22.2-100.3c59.7-33.3,105.1-5.8,114.7,14.1c4.9-19.6,27.4-34.5,42.3-38.2
				c33.9-8.4,55.9-5.8,87.6,8.8c11.2,5.2,26.1,23.1,33.6,32.8c11.7,15.4,13.5,36,14.1,55.3c0.4,14.5,0.6,28.9,0.1,43.5"/>
		</g>
		<g>
			<path class="st1" d="M991.3,881.3c146.8,0.4,348.2,0.6,485.7,0c4.6,0,19.2,0.1-5.8-16c-21.3-13.6-88.3-1.3-88.3-1.3
				s15.6-6.3,15.6-14.4c0-8.1-6.1-15.1-13.5-18.6c-7.3-3.3-15.7-3.6-23.8-3.1c-16.5,0.9-32.7,4.6-48,10.8c6.4-4,8.4-13.8,4-19.9
				s-14.2-7.5-20.1-2.7c10.3-13.9,26.2-75.9-22.8-103.2c-61.5-34.2-108.1-6-118,14.5c-5.1-20.2-28.2-35.5-43.5-39.3
				c-34.8-8.7-57.4-6.1-90,9.1c-11.5,5.4-26.8,23.7-34.5,33.9c-12,15.9-13.8,36.9-14.5,56.8c-0.4,14.8-0.6,29.8-0.1,44.7"/>
		</g>
		<g>
			<g>
				<path class="st1" d="M570.8,587.2c-4.9-10.5-10-21.3-9.7-32.8c0.3-10.6-0.2-22.6,2.7-33c2.8-10.3,3.3-21.1,2.1-31.9
					c-3.6-33.4-17.7-31.3-22.9-29.4c-5.1,1.9-8.1,7-9.3,15.6c-0.9,6.9,0.4,39.9-9.6,33.9c-11.7-6.9-7.6-40.6-8.4-52.2
					c-1-17.2-6.1-36-17.7-49c-5.7-6.4-14.7-11.7-22.8-8.7c-4.8,1.8-8.4,6.1-10.5,10.8c-6.6,14.1-3.1,30,1.2,44.1
					c1.8,6,18.6,34.3,2.7,30.1c-3.7-1-33.3-29.7-39.3-3.9c-2.1,9.1,7.2,19.6,22.3,33.1c9.4,8.4,45.1,31.6,42.3,41.7
					c-3,10-22.2-8.5-21.7,10.8c0.3,10.8,13.3,19.9,22.5,24.9c4.3,2.4,9,3.9,13.2,6.6c4.9,3.1,10.6,10.2,6,15.9
					c-1.9,2.5-5.5,3.4-7.3,6c-1.9,2.5-1.8,6.3-0.4,9.3c1.3,3,3.9,5.2,6.4,7.2c16.6,12.7,38.5,16.8,59.4,15
					c20.8-1.9,40.8-9.3,59.8-17.7"/>
			</g>
			<g class="st2">
				<path class="st3" d="M483.3,418.5c0,0,9.7,113.2,69.9,189.6"/>
				<path class="st3" d="M444.9,488.4c0,0,34.5,33.3,65.1,40.8"/>
				<path class="st3" d="M547.1,474.6c0.1,17.7-3.4,66.6-22.5,88.3"/>
				<path class="st3" d="M485.5,571.6c0,0,13.5,14.4,58.6,24.3"/>
				<path class="st3" d="M514.9,624c0,0,23.2,6.6,45.4-3.4"/>
			</g>
		</g>
		<g>
			<g>
				<path class="st1" d="M1260.5,399.5c4.5-9.4,9.1-19.5,8.8-30c-0.3-9.7,0.1-20.5-2.4-30c-2.5-9.4-3-19.3-1.9-28.9
					c3.3-30.4,16-28.5,20.8-26.7c4.6,1.8,7.3,6.3,8.4,14.1c0.9,6.3-0.3,36.3,8.8,30.9c10.6-6.3,6.9-37,7.6-47.4
					c1-15.6,5.5-32.7,16.2-44.5c5.2-5.8,13.3-10.6,20.7-7.9c4.3,1.6,7.6,5.5,9.6,9.9c6,12.9,2.8,27.1-1.2,40.2
					c-1.6,5.4-16.9,31.2-2.4,27.4c3.4-0.9,30.3-27,35.7-3.4c1.9,8.2-6.6,17.8-20.2,30.1c-8.5,7.6-41.1,28.8-38.4,37.9
					c2.7,9.1,20.2-7.8,19.8,9.7c-0.3,9.7-12.1,18.1-20.4,22.6c-3.9,2.1-8.2,3.6-12,6c-4.5,2.8-9.6,9.1-5.4,14.4
					c1.8,2.2,4.9,3.1,6.7,5.5s1.6,5.8,0.3,8.4c-1.3,2.7-3.6,4.8-5.8,6.6c-15,11.5-35.1,15.3-54,13.6c-18.9-1.8-37-8.4-54.4-16"/>
			</g>
			<g class="st2">
				<path class="st4" d="M1340.2,246c0,0-8.8,103-63.6,172.5"/>
				<path class="st4" d="M1375.1,309.6c0,0-31.5,30.3-59.2,37.2"/>
				<path class="st4" d="M1282.1,297c-0.2,16,3.1,60.6,20.4,80.4"/>
				<path class="st4" d="M1338.1,385.4c0,0-12.3,13-53.4,22.2"/>
				<path class="st4" d="M1311.4,432.9c0,0-21.1,6-41.4-3.1"/>
			</g>
		</g>
		<g>
			<g class="st5">
				<path class="st6" d="M1096.9,865.2c6.3-2.2,10-5.2,10.5-9.3c0.6-6.9-14.8-6.9-26.8-5.7c15.9-9,29.7-20.7,24.4-32.4
					c-10.9-24.4-46.5,2.5-58.6,18.1c0,0,53.7-67.5,20.2-79.9c-29.8-11.1-42.4,61.8-43.5,69.1c1-7,10.3-72.6-24.1-69.6
					c-36.1,3.3-30.3,114.4-30.3,114.4s60.1,4.3,101.2,0.3l-42.1,11.2h107.8C1141.6,863.3,1116.1,863,1096.9,865.2z"/>
				<path class="st6" d="M852.9,755.8c-36.7-3.3-27,66.9-25.8,74.5c-1.2-7.8-14.5-85.9-46.6-73.9c-35.8,13.3,21.7,85.6,21.7,85.6
					c-12.9-16.6-46.2-41.4-57.9-15.3c-5.1,11.4,5.8,22,19.8,30.4c-9-2.1-18.1-3.1-21.1,0.4c-3.6,4.3-2.4,9.1,2.7,13
					c-15.3-3.7-58.6-12.7-50.8,11.2h107.8l-10.9-2.1c6.7-0.7,10.8-2.7,12.9-5.1c0.4,0.1,0.6,0.1,0.6,0.1l80.1,3.6l-12.1-41.1
					C873.2,837.3,891.6,759.4,852.9,755.8z"/>
			</g>
			<path class="st7" d="M829.7,872.3c0,0-37.6-14.5-28.5-27.1c5.7-7.9,16.8,5.5,16.8,5.5s-14.5-19-1.9-24.9
				c13-6,20.1,15.9,20.1,15.9s-4.8-19.2,5.1-21.9c9.9-2.7,10.6,19.2,10.6,19.2s12.9-17.2,20.5-3.4c6.9,12.4-14.1,37.5-14.1,37.5"/>
			<path class="st7" d="M1023.9,874.8c0,0,37.6-14.5,28.5-27.1c-5.7-7.9-16.8,5.5-16.8,5.5s14.5-19,1.9-24.9
				c-13-6-20.1,15.9-20.1,15.9s4.8-19.2-5.1-21.9c-9.9-2.7-10.6,19.2-10.6,19.2s-12.9-17.2-20.5-3.4c-6.9,12.4,14.1,37.5,14.1,37.5"
				/>
		</g>
	</g>
	<g>
		<g>
			<polygon class="st8" points="1003.9,864 854,864 870.3,800 873.9,785.5 881.1,757.4 976.8,757.4 984,785.5 987.6,800 			"/>
			<path class="st8" d="M1281.7,343.1v424.4c0,8.7-5.7,15.9-13.3,17.8c-1.3,0.3-2.7,0.4-4,0.4H595.9c-3.4,0-6.6-1-9.4-2.8
				c-1-0.7-1.9-1.5-2.7-2.2c-3.3-3.3-5.2-7.9-5.2-13.2V343.1c0-10,7.8-18.3,17.4-18.3h668.2C1273.9,324.8,1281.7,333,1281.7,343.1z"
				/>
			<polygon class="st9" points="987.6,800 870.3,800 873.9,785.5 984,785.5 			"/>
			<path class="st9" d="M1061.4,881.7h-265c-6.3,0-11.5-5.1-11.5-11.5l0,0c0-6.3,5.1-11.5,11.5-11.5h265c6.3,0,11.5,5.1,11.5,11.5
				l0,0C1072.9,876.6,1067.8,881.7,1061.4,881.7z"/>
			<path class="st10" d="M1281.7,343.2v365.9H578.3V343.2c0-10,7.8-18.3,17.4-18.3H1264C1273.7,324.9,1281.7,333,1281.7,343.2z"/>
			<rect x="598.7" y="346.5" class="st11" width="662.4" height="343.6"/>
			<g>
				<g>
					<path class="st12" d="M912.6,772.6h-4v3.4h4.6v0.6h-5.4v-8.5h5.4v0.6h-4.6v3.1h4V772.6z"/>
					<path class="st12" d="M920.9,775.7c-0.1,0.3-0.6,0.6-1,0.7c-0.4,0.3-1.2,0.3-1.9,0.3c-1,0-1.8-0.3-2.4-1
						c-0.6-0.6-0.9-1.5-0.9-2.5v-1.5c0-1,0.3-1.9,0.9-2.5c0.6-0.6,1.3-1,2.4-1c0.9,0,1.6,0.3,2.1,0.7c0.4,0.4,0.7,1,0.9,1.8l0,0
						h-0.7c-0.1-0.6-0.3-1-0.7-1.3c-0.4-0.3-0.9-0.6-1.6-0.6s-1.3,0.3-1.8,0.9c-0.4,0.6-0.7,1.2-0.7,2.1v1.5c0,0.9,0.3,1.6,0.7,2.2
						c0.4,0.6,1.2,0.9,1.9,0.9c0.6,0,1-0.1,1.5-0.3c0.4-0.1,0.6-0.3,0.7-0.4v-2.2h-2.2v-0.7h3V775.7z"/>
					<path class="st12" d="M923.7,776.6h-0.6v-8.5h0.7v8.5H923.7z"/>
					<path class="st12" d="M931.1,774.5c0-0.4-0.1-0.9-0.4-1.2c-0.3-0.3-0.9-0.6-1.8-0.7c-0.9-0.3-1.6-0.6-2.1-0.9
						c-0.4-0.3-0.7-0.9-0.7-1.5s0.3-1.2,0.7-1.6c0.6-0.4,1.2-0.6,2.1-0.6c0.9,0,1.6,0.3,2.1,0.7c0.6,0.4,0.7,1,0.7,1.8l0,0h-0.6
						c0-0.6-0.1-1-0.6-1.3c-0.4-0.3-0.9-0.6-1.6-0.6s-1.2,0.1-1.6,0.4c-0.4,0.3-0.6,0.7-0.6,1.2c0,0.4,0.1,0.7,0.6,1
						c0.3,0.3,0.9,0.6,1.8,0.7c0.9,0.3,1.6,0.6,2.1,0.9c0.4,0.4,0.7,0.9,0.7,1.5c0,0.7-0.3,1.2-0.9,1.6s-1.2,0.6-2.1,0.6
						c-0.9,0-1.6-0.1-2.2-0.6c-0.6-0.4-0.9-1-0.9-1.8l0,0h0.6c0,0.6,0.3,1.2,0.7,1.5c0.4,0.3,1,0.4,1.8,0.4c0.6,0,1.2-0.1,1.6-0.4
						C930.8,775.4,931.1,775.1,931.1,774.5z"/>
					<path class="st12" d="M939,768.8h-3v7.9h-0.7v-7.9h-3v-0.6h6.6v0.6H939z"/>
					<path class="st12" d="M953.1,772.6h-4v3.4h4.6v0.6h-5.4v-8.5h5.4v0.6H949v3.1h4V772.6z"/>
					<path class="st12" d="M960,772.6h-4v3.4h4.6v0.6h-5.4v-8.5h5.4v0.6h-4.6v3.1h4V772.6z"/>
					<path class="st12" d="M904.2,772.6c0.4-0.1,0.9-0.4,1-0.7c0.3-0.3,0.4-0.7,0.4-1.2c0-0.7-0.3-1.3-0.7-1.8
						c-0.4-0.4-1.2-0.6-2.1-0.6H900v8.5h0.7v-3.9h2.4c0.6,0,1,0.1,1.3,0.4c0.3,0.3,0.4,0.7,0.4,1.2v0.7v1.3h0.4h0.3v-1.3v-0.7
						c0-0.4-0.1-0.9-0.3-1.2C905.1,772.9,904.7,772.6,904.2,772.6z M902.7,772.3h-2.1v-3.4h2.2c0.7,0,1.2,0.1,1.6,0.4
						c0.3,0.3,0.6,0.7,0.6,1.3c0,0.6-0.1,0.9-0.6,1.2C904.1,772.1,903.5,772.3,902.7,772.3z"/>
					<path class="st12" d="M944.7,772.6c0.4-0.1,0.9-0.4,1-0.7c0.3-0.3,0.4-0.7,0.4-1.2c0-0.7-0.3-1.3-0.7-1.8s-1.2-0.6-2.1-0.6
						h-2.8v8.5h0.7v-3.9h2.4c0.6,0,1,0.1,1.3,0.4c0.3,0.3,0.4,0.7,0.4,1.2v0.7v1.3h0.4h0.3v-1.3v-0.7c0-0.4-0.1-0.9-0.3-1.2
						C945.6,772.9,945.1,772.6,944.7,772.6z M943.2,772.3h-2.1v-3.4h2.2c0.7,0,1.2,0.1,1.6,0.4c0.3,0.3,0.6,0.7,0.6,1.3
						c0,0.6-0.1,0.9-0.6,1.2C944.5,772.1,944,772.3,943.2,772.3z"/>
				</g>
				<g>
					<path class="st12" d="M935.9,764.8l-0.1-0.1c-0.9-0.9-1.6-3.1-1.6-5.2c0-1.5,0.4-3,1.3-3.7h0.1h0.1c0.6-0.1,1-0.3,1.3-0.4
						c0.9-0.4,1.5-1.2,1.9-2.1c0.1-0.4,0.4-0.6,0.9-0.6c2.2,0.1,4.2-1.2,4.9-3.3c0.3-0.9,0.3-1.8,0.1-2.7c-0.1-0.4,0-0.6,0.3-0.9
						c1.2-0.7,1.9-1.9,2.2-3.1c0.3-1.3,0-2.7-0.9-3.7c-0.1-0.3-0.1-0.6,0-0.9c0.7-1.2,1-2.5,0.9-3.7c-0.3-1.3-1-2.4-2.2-3.3
						c-0.3-0.1-0.4-0.4-0.3-0.7c0.3-1.3,0-2.8-0.7-3.9c-0.7-1-1.9-1.8-3.4-2.1c-0.3,0-0.7,0-1,0c-0.4,0-0.7-0.3-0.7-0.4
						c-1-2.1-3.1-3.1-5.4-2.5c-0.9,0.1-1.8,0.7-2.5,1.5l-0.1,0.1l-0.3,0.4l-0.3-0.3l-0.1-0.1c-0.1-0.1-0.3-0.3-0.4-0.4
						c-1.2-1-2.7-1.5-4.2-1.2s-2.7,1.2-3.4,2.5c-0.1,0.4-0.4,0.6-0.9,0.6c-1.5-0.1-3,0.6-4,1.6c-1,1.2-1.3,2.7-1,4.2
						c0.1,0.4,0,0.6-0.3,0.9c-1.2,0.7-1.9,1.9-2.2,3.1c-0.3,1.3,0,2.7,0.9,3.7c0.1,0.3,0.1,0.6,0,0.9c-0.7,1.2-1,2.5-0.9,3.7
						c0.3,1.3,1,2.4,2.2,3.3c0.3,0.1,0.4,0.4,0.3,0.7c-0.3,1.3,0,2.8,0.7,3.9c0.7,1,1.9,1.8,3.4,2.1c0.3,0,0.6,0,0.9,0h0.1
						c0.3,0,0.6,0.1,0.7,0.4c0.4,1,1.2,1.8,2.1,2.2l0.1,0.1l0,0l0,0h0.1l0,0c1,0.6,1.8,2.2,1.8,4c0,2.1-0.9,4.3-1.8,5.1l-0.1,0.1
						h-0.1c-11.1-2.8-18.7-12.7-18.7-24.1c0-13.8,11.2-25,25-25s25,11.2,25,25c0,5.7-1.9,11.2-5.5,15.6c-3.4,4.3-8.4,7.5-13.8,8.7
						H935.9z M935.7,756.2c-0.4,0.4-1,1.5-1,3.1c0,1.8,0.6,3.7,1.3,4.5c10.8-2.7,18.4-12.3,18.4-23.5c0-13.3-10.8-24.1-24.1-24.1
						c-13.3,0-24.1,10.8-24.1,24.1c0,10.9,7.3,20.5,18,23.4c0.6-0.6,1.3-2.5,1.3-4.3c0-0.9-0.1-1.9-0.6-2.7c-0.4-0.7-1-0.7-1.6-1.2
						c-0.3-0.1-0.4-0.4-0.7-0.6c-0.6-0.4-0.9-1-1.3-1.8H921c-0.3,0-0.7,0-1,0c-1.6-0.3-3-1-3.9-2.4c-0.9-1.3-1.2-2.8-0.9-4.5
						c-1.3-0.9-2.2-2.2-2.5-3.7c-0.3-1.5,0-3,1-4.3c-0.9-1.3-1.2-2.8-0.9-4.3c0.3-1.5,1.2-2.8,2.5-3.7l0,0l0,0
						c-0.4-1.8,0-3.6,1.2-4.9c1.2-1.3,2.8-2.1,4.6-1.9c0.1,0,0.1,0,0.1-0.1c0.7-1.6,2.2-2.7,4-3c1.8-0.3,3.4,0.1,4.8,1.3
						c0.1,0.1,0.3,0.3,0.3,0.3c0.9-0.9,1.8-1.5,3-1.6c2.7-0.6,5.1,0.6,6.3,3l0,0l0,0c0.4,0,0.7,0,1.2,0c1.6,0.3,3,1,3.9,2.4
						c0.9,1.3,1.2,2.8,0.9,4.5c1.3,0.9,2.2,2.2,2.5,3.7c0.3,1.5,0,3-1,4.3c0.9,1.3,1.2,2.8,0.9,4.3c-0.3,1.5-1.2,2.8-2.5,3.7l0,0
						l0,0c0.3,1,0.1,2.1-0.1,3c-0.9,2.5-3.1,3.9-5.7,3.9c-0.1,0-0.1,0-0.1,0s0,0,0,0.1c-0.4,1-1.2,1.8-2.2,2.4
						C936.9,755.9,936.5,756.1,935.7,756.2z M945.6,746.3L945.6,746.3L945.6,746.3z M913.5,738.2L913.5,738.2L913.5,738.2z
						 M947.1,738.2L947.1,738.2L947.1,738.2z M915,730.1L915,730.1L915,730.1z M939.6,723.2L939.6,723.2L939.6,723.2z"/>
					<path class="st12" d="M929.6,725.9c0-0.1,0-0.3,0-0.4c-0.1-1.3-0.7-2.4-2.1-3c-1.2-0.6-2.4-0.4-3.4,0.4c-1.3,0.9-1.8,3-1,4.3
						l0.1,0.3l0.3-0.1c0.1,0,0.3-0.1,0.4-0.1c0.3-0.1,0.6-0.3,0.9-0.3c0.3-0.1,0.6-0.1,0.9-0.1v1.3c-1.6,0.3-2.7,1.3-3,3h-1.3
						c0-0.4,0.1-1,0.4-1.5c0.4-0.9,0.3-1.5,0-2.1c-0.1-0.3-0.3-0.7-0.4-1.3c0-0.1-0.1-0.4-0.1-0.6v-0.3h-0.3c-0.9,0-1.8,0.3-2.5,0.9
						c-1.2,1-1.5,2.8-0.7,4.3v0.1c0,0,0,0,0,0.1v0.1c-0.1,0.3-0.1,0.6-0.6,0.6c-1.2,0.3-1.9,1.2-2.4,2.2c-0.3,1-0.1,2.2,0.6,3.1
						c0.1,0.1,0.4,0.4,0.9,0.4l0,0c1.3,0,2.8,0,4.3,0c0.4,0,0.7-0.1,0.9-0.6c0.1-0.6,0.4-1.2,0.9-1.8l1,1c-0.7,0.9-0.9,2.1-0.6,3.1
						c0.3,1,1.2,1.9,2.4,2.2c0.4,0.1,1,0.1,1.5,0.1c0.1,0,0.3,0,0.4,0c0.3,0,0.6,0,0.7,0c0.1,0,0.4,0,0.6,0c0.1,0,0.4,0,0.6,0h0.4
						L929.6,725.9z"/>
					<path class="st12" d="M929.6,745.9v-2.7h-0.4c-0.3,0-0.6,0-0.9,0c-0.7,0-1.3,0-1.9,0c-2.4,0-4.2-1.3-4.8-3.6
						c-0.1-0.4-0.3-0.6-0.7-0.6c-1.8,0-3.1,0-4.5,0c-0.3,0-0.6,0.1-0.9,0.4c-0.7,0.9-0.9,2.1-0.6,3.1c0.3,1,1,1.9,2.1,2.2
						c0.4,0.1,0.6,0.3,0.7,0.7c0,0.1,0,0.1,0,0.3c-0.6,1-0.7,2.2-0.1,3.3c0.6,1.3,2.1,2.1,3.4,1.9h0.3v-0.3c0-0.9,0.3-1.6,0.7-2.4
						c0.3-0.4,0.1-0.7,0-1c-0.3-0.6-0.6-1.2-0.6-1.9h1.3c0.1,0.7,0.4,1.5,1,2.1c0.6,0.6,1.2,0.9,2.1,1v1.3c-0.7,0-1.5-0.3-2.1-0.7
						l-0.3-0.1l-0.1,0.3c-0.7,1.2-0.4,3,0.6,4c0.7,0.7,1.6,1,2.5,1c0.4,0,1-0.1,1.5-0.3c1.3-0.6,1.9-1.8,1.9-3.3
						C929.6,749,929.6,747.4,929.6,745.9z M928.8,743.9L928.8,743.9L928.8,743.9L928.8,743.9z"/>
					<path class="st12" d="M945.9,733.9c-0.3-1-1.2-1.9-2.4-2.4c-0.3-0.1-0.3-0.1-0.4-0.3c0-0.1-0.1-0.3-0.1-0.3s0,0,0-0.1
						c0.4-0.6,0.6-1.3,0.6-2.1c0-0.9-0.6-1.8-1.3-2.5c-0.7-0.6-1.6-0.9-2.5-0.7h-0.3v0.4c0,0.1,0,0.1,0,0.3c0,0.7-0.3,1.3-0.6,1.9
						c-0.1,0.3-0.1,0.7,0,1c0.3,0.6,0.6,1.2,0.6,2.1H938c-0.3-1.6-1.3-2.7-3-3v-1.3c0.7,0,1.5,0.3,2.1,0.7l0.3,0.1l0.1-0.3
						c0.6-1.2,0.4-2.7-0.3-3.7c-0.7-1-2.2-1.5-3.6-1.2c-1.6,0.4-2.7,1.8-2.7,3.4c0,1.6,0,3.4,0,5.1v1.8c0,0.1,0,0.1,0,0.1s0,0,0,0.1
						v0.3h1.3c0.6,0,1.3,0,1.9,0c2.4,0,4.2,1.3,4.8,3.6c0.1,0.4,0.6,0.6,0.7,0.6c1.8,0,3.1,0,4.3,0l0,0c0.3,0,0.6-0.1,0.9-0.4
						C946,736.1,946.2,734.9,945.9,733.9z"/>
					<path class="st12" d="M945.3,739.4c-0.3-0.3-0.6-0.4-0.9-0.4c-1.3,0-2.8,0-4.2,0c-0.6,0-0.9,0.3-1,0.7
						c-0.1,0.6-0.4,1.2-0.9,1.6l-1-1c0.7-1,0.9-2.2,0.4-3.4c-0.6-1.2-1.6-1.9-2.8-2.1c-0.6,0-1.3,0-1.9,0c-0.3,0-0.6,0-0.9,0
						c-0.1,0-0.3,0-0.3,0h-0.6v15.7c0,0.1,0,0.3,0,0.4c0.1,1.3,0.9,2.7,2.2,3.1c0.4,0.1,0.9,0.3,1.2,0.3c0.9,0,1.8-0.4,2.5-1.2
						c1-1,1.2-2.8,0.4-3.9l-0.1-0.3l-0.3,0.1c-0.7,0.4-1.3,0.6-2.1,0.7v-1.3c0.7-0.1,1.5-0.4,2.1-1c0.6-0.6,0.9-1.2,1-2.1h1.3
						c0,0.4-0.1,1-0.4,1.5c-0.6,0.9-0.3,1.5,0,2.1c0.1,0.3,0.3,0.7,0.4,1.2c0,0.1,0.1,0.4,0.1,0.6v0.3h0.3c0.9,0.1,1.8-0.1,2.5-0.9
						c1.2-1,1.5-2.8,0.7-4.3c0,0,0,0,0-0.1l0,0v-0.1c0.1-0.3,0.1-0.6,0.6-0.6l0,0c1.2-0.3,1.9-1.2,2.4-2.2
						C946.3,741.5,946,740.3,945.3,739.4z"/>
				</g>
			</g>
		</g>
	</g>
	
		<image style="overflow:visible;enable-background:new    ;" width="1632" height="898" xlink:href="../../Assets/Screens/Degree_Selector_Modal_2.png"  transform="matrix(0.4058 0 0 0.4058 599.1829 345.1671)">
	</image>
	<g>
		<g>
			<g>
				
					<rect x="989.9" y="232.4" transform="matrix(0.9684 -0.2495 0.2495 0.9684 -31.882 265.067)" class="st13" width="79.6" height="51.7"/>
				<polygon class="st13" points="1061.8,223.2 984.6,243 1015,201.5 				"/>
				
					<rect x="996.8" y="228.5" transform="matrix(0.9684 -0.2495 0.2495 0.9684 -31.2085 264.7159)" class="st12" width="63.7" height="53.8"/>
				<polygon class="st6" points="984.6,243 997.5,293.3 1030,260 				"/>
				<polygon class="st6" points="1061.8,223.2 1074.7,273.3 1030,260 				"/>
				<polygon class="st6" points="1074.7,273.3 997.5,293.3 1027.9,251.6 				"/>
			</g>
			<path class="st13" d="M997.5,293.3c2.2-3.6,4.6-7.2,7-10.8c2.4-3.6,4.8-7.2,7.2-10.6c2.4-3.6,4.9-7,7.3-10.5l7.5-10.5l0.7-1
				l1,0.4c7.8,3.6,15.6,7.3,23.2,11.2c3.9,1.9,7.6,3.9,11.5,5.8c3.7,2.1,7.6,4,11.4,6.1c-4-1.5-7.9-3.1-12-4.8
				c-3.9-1.6-7.9-3.3-11.8-5.1c-7.9-3.4-15.7-7-23.5-10.6l1.8-0.4l-7.6,10.3c-2.5,3.4-5.1,6.9-7.8,10.2c-2.5,3.4-5.2,6.7-7.9,10.2
				C1003,286.5,1000.3,290,997.5,293.3z"/>
		</g>
		<g>
			<g>
				<path class="st6" d="M407.2,555.4c-1.8,6.6-8.7,10.5-15.3,8.7c-6.6-1.8-10.5-8.7-8.7-15.3c1.8-6.6,8.7-10.5,15.3-8.7
					C405.1,542.1,409,548.8,407.2,555.4z"/>
				<polyline class="st6" points="389.8,551.2 393.3,557.1 401.8,550.3 				"/>
			</g>
			<g>
				<path class="st6" d="M1199.6,253.4c2.7,6.3-0.1,13.6-6.4,16.3c-6.3,2.7-13.6-0.1-16.3-6.4c-2.7-6.3,0.1-13.6,6.4-16.3
					C1189.6,244.1,1196.9,247.1,1199.6,253.4z"/>
				<polyline class="st6" points="1183.4,260.9 1189.7,263.4 1192.3,252.6 				"/>
			</g>
			<path class="st6" d="M540.4,400.4c0,2.5-2.1,4.5-4.5,4.5c-2.5,0-4.5-2.1-4.5-4.5c0-2.5,2.1-4.5,4.5-4.5
				C538.4,395.9,540.4,397.8,540.4,400.4z"/>
			<path class="st6" d="M476.4,759.7c0,2.5-2.1,4.5-4.5,4.5c-2.5,0-4.5-2.1-4.5-4.5c0-2.5,2.1-4.5,4.5-4.5
				C474.3,755,476.4,757.1,476.4,759.7z"/>
			<path class="st6" d="M1378.8,363.2c0,2.5-2.1,4.5-4.5,4.5c-2.5,0-4.5-2.1-4.5-4.5c0-2.5,2.1-4.5,4.5-4.5
				C1376.7,358.5,1378.8,360.6,1378.8,363.2z"/>
			<path class="st6" d="M836.4,243.9c0,2.5-2.1,4.5-4.5,4.5c-2.5,0-4.5-2.1-4.5-4.5c0-2.5,2.1-4.5,4.5-4.5
				C834.5,239.3,836.4,241.4,836.4,243.9z"/>
			<g>
				<g>
					<g>
						<g>
							<path class="st6" d="M567.5,250.5c-0.7,0-1.5-0.6-1.5-1.5v-10.2c0-0.7,0.6-1.5,1.5-1.5c0.7,0,1.5,0.6,1.5,1.5V249
								C569,249.8,568.3,250.5,567.5,250.5z"/>
						</g>
					</g>
					<g>
						<g>
							<path class="st6" d="M572.6,245.3h-10.2c-0.7,0-1.5-0.6-1.5-1.5c0-0.7,0.6-1.5,1.5-1.5h10.2c0.7,0,1.5,0.6,1.5,1.5
								C574.1,244.7,573.5,245.3,572.6,245.3z"/>
						</g>
					</g>
				</g>
			</g>
			<path class="st6" d="M461.2,663.4h-3.7v-3.7c0-0.7-0.6-1.5-1.5-1.5c-0.7,0-1.5,0.6-1.5,1.5v3.7h-3.7c-0.7,0-1.5,0.6-1.5,1.5
				c0,0.7,0.6,1.5,1.5,1.5h3.7v3.7c0,0.7,0.6,1.5,1.5,1.5c0.7,0,1.5-0.6,1.5-1.5v-3.7h3.7c0.7,0,1.5-0.6,1.5-1.5
				C462.7,664,462.1,663.4,461.2,663.4z"/>
			<path class="st6" d="M1371.8,507.4h-3.7v-3.7c0-0.7-0.6-1.5-1.5-1.5c-0.7,0-1.5,0.6-1.5,1.5v3.7h-3.7c-0.7,0-1.5,0.6-1.5,1.5
				c0,0.7,0.6,1.5,1.5,1.5h3.7v3.7c0,0.7,0.6,1.5,1.5,1.5c0.7,0,1.5-0.6,1.5-1.5v-3.7h3.7c0.7,0,1.5-0.6,1.5-1.5
				C1373.1,508,1372.5,507.4,1371.8,507.4z"/>
		</g>
		<g>
			<path class="st1" d="M819.8,308.3H613.4c-1.3,0-2.4-1-2.4-2.4V261c0-1.3,1-2.4,2.4-2.4h206.5c1.3,0,2.4,1,2.4,2.4v44.8
				C822.3,307.2,821.1,308.3,819.8,308.3z"/>
			<path class="st13" d="M813.9,303H608.8c-1.6,0-3-1.3-3-3v-43.5c0-1.6,1.3-3,3-3h205.2c1.6,0,3,1.3,3,3V300
				C817.1,301.7,815.6,303,813.9,303z"/>
			<g>
				<path class="st12" d="M791.9,286.7H630.8c-4.6,0-8.4-3.7-8.4-8.4l0,0c0-4.6,3.7-8.4,8.4-8.4h161.1c4.6,0,8.4,3.7,8.4,8.4l0,0
					C800.4,282.9,796.5,286.7,791.9,286.7z"/>
				<ellipse class="st12" cx="781.5" cy="278.3" rx="18.7" ry="18.7"/>
				<line class="st14" x1="632.2" y1="274.4" x2="632.2" y2="282.2"/>
				<path class="st15" d="M789.5,284.6l-3.4-3c0.9-1.2,1.5-2.7,1.5-4.2c0-3.9-3.1-7-7-7c-3.9,0-7,3.1-7,7s3.1,7,7,7
					c1.6,0,3-0.6,4.2-1.5l3.6,3.1c0.1,0.1,0.3,0.1,0.6,0.1c0.3,0,0.4-0.1,0.7-0.3C789.8,285.5,789.8,284.9,789.5,284.6z
					 M780.5,282.5c-2.8,0-5.2-2.2-5.2-5.2c0-3,2.2-5.2,5.2-5.2c2.8,0,5.2,2.4,5.2,5.2C785.7,280.1,783.3,282.5,780.5,282.5z"/>
			</g>
		</g>
	</g>
	<g>
		<g>
			<defs>
				<circle id="SVGID_1_" cx="1146.6" cy="498.1" r="91.5"/>
			</defs>
			<clipPath id="SVGID_2_">
				<use xlink:href="#SVGID_1_"  style="overflow:visible;"/>
			</clipPath>
			<g class="st16">
				
					<image style="overflow:visible;enable-background:new    ;" width="1632" height="898" xlink:href="../../Assets/Screens/Degree_Selector_Modal_2.png"  transform="matrix(0.6499 0 0 0.6499 300.7545 253.6891)">
				</image>
			</g>
		</g>
	</g>
	<g>
		<g>
			<ellipse class="st17" cx="1146" cy="926.1" rx="94.9" ry="7.5"/>
			<g>
				<g>
					<path class="st13" d="M1177,866.6c-5.2-18-1.3-37.3,4.8-55c1.5-4.2,3.1-8.5,6.3-11.8c1.6-1.6,3.9-3,6.1-2.5
						c3.3,0.6,4.6,4.6,5.1,7.9c2.4,21.1-11.5,40.6-15.1,61.6"/>
				</g>
				<g>
					<path class="st13" d="M1162.1,857.6c-1-5.4-2.4-10.6-4.9-15.4c-2.5-4.8-6.3-9.1-11.1-11.7c-2.1-1-4.9-1.8-6.7-0.1
						c-1.9,1.8-1.3,4.9-0.1,7.3c6.4,13,22.8,18.9,29.1,31.9"/>
				</g>
				<g>
					<path class="st13" d="M1169.6,868.2c-4-7.6-7.9-15.3-10.2-23.7c-2.2-8.2-2.7-17.2,0.1-25.5c0.9-2.5,3-5.4,5.5-4.5
						c0.9,0.3,1.6,1,2.2,1.9c4.6,6.1,6.4,13.9,7.3,21.7c0.9,7.6,0.9,15.4,2.5,23.1c0.3,1,0.6,2.2,1.3,3.1c0.7,0.9,2.2,1.2,3.1,0.4
						c0.4-0.4,0.7-1,0.9-1.6c1-3.3,17.7-37.9,32.8-40.3c1.2-0.1,2.4-0.3,3.7-0.1c18.9,3.1-23.7,42.7-24,48.6
						c15.4-13.2,18.7-15.7,25.8-16.9c5.4-1,14.8,3.9,11.7,10.5c-2.1,4.6-7.5,6.6-12.4,7.6c-5.4,1-10.9,1.5-16.3,3
						c-5.2,1.5-10.5,4.3-13.2,9.3"/>
				</g>
			</g>
			<path class="st18" d="M1212.2,874.7c-2.8,0-5.7,0.4-8.2,1.3c-0.6-21.6-18.3-38.8-40-38.8c-22,0-40,18-40,40c0,1,0,1.9,0.1,3
				c-3.9-6.4-10.9-10.9-19-10.9c-12.3,0-22.2,9.9-22.2,22.2c0,1.8,0.1,3.4,0.6,5.1c-2.2-1.2-4.9-1.9-7.6-1.9
				c-8.8,0-15.9,7-15.9,15.9c0,8.8,7,15.9,15.9,15.9c8.8,0,125.4,0,136.6,0c14.2,0,25.8-11.5,25.8-25.8
				C1238.2,886.2,1226.6,874.7,1212.2,874.7z"/>
		</g>
		<g>
			<ellipse class="st17" cx="556" cy="896.6" rx="79.3" ry="6.3"/>
			<g>
				<g>
					<path class="st13" d="M530,846.9c4.3-15,1-31.2-4-46c-1.2-3.6-2.7-7.2-5.2-9.9c-1.3-1.3-3.3-2.5-5.1-2.1
						c-2.7,0.6-3.9,3.9-4.2,6.6c-1.9,17.7,9.7,33.9,12.6,51.4"/>
				</g>
				<g>
					<g>
						<path class="st13" d="M542.5,839.4c0.9-4.5,2.1-8.8,4.2-12.9c2.1-4,5.2-7.6,9.3-9.7c1.8-0.9,4.2-1.5,5.7-0.1
							c1.6,1.5,1,4.2,0.2,6.1c-5.4,10.9-19,15.7-24.3,26.7 M536.2,848.3c3.4-6.3,6.7-12.7,8.5-19.8c1.9-6.9,2.2-14.4,0-21.3
							c-0.7-2.1-2.5-4.5-4.6-3.7c-0.7,0.3-1.3,0.9-1.8,1.5c-3.9,5.1-5.4,11.7-6.1,18.1c-0.7,6.4-0.7,12.9-2.1,19.2
							c-0.1,0.9-0.4,1.9-1.2,2.5c-0.6,0.7-1.8,1-2.5,0.4c-0.4-0.3-0.6-0.9-0.7-1.3c-0.9-2.8-14.8-31.8-27.4-33.7
							c-1-0.1-2.1-0.3-3.1-0.1c-15.9,2.7,19.8,35.7,20.1,40.6c-12.9-11.1-15.6-13-21.4-14.1c-4.5-0.7-12.4,3.1-9.7,8.7
							c1.8,3.9,6.3,5.5,10.3,6.3c4.5,0.9,9.1,1.2,13.6,2.4c4.5,1.2,8.8,3.7,11.1,7.6"/>
					</g>
				</g>
			</g>
			<path class="st18" d="M500.5,853.7c2.4,0,4.8,0.4,6.9,1.2c0.4-18,15.3-32.5,33.4-32.5c18.4,0,33.4,15,33.4,33.4
				c0,0.9,0,1.6-0.1,2.5c3.3-5.4,9.1-9.1,15.9-9.1c10.2,0,18.6,8.2,18.6,18.6c0,1.5-0.1,2.8-0.4,4.2c1.9-1,4-1.6,6.4-1.6
				c7.3,0,13.3,6,13.3,13.3s-6,13.3-13.3,13.3c-7.3,0-104.8,0-114.1,0c-12,0-21.6-9.6-21.6-21.6
				C478.9,863.3,488.7,853.7,500.5,853.7z"/>
		</g>
	</g>
	<g>
		<path class="st19" d="M1281.5,537.3c-0.1,0.7-0.1,1.6-0.1,2.4c-0.9,1.8-1.2,4.2-1.3,6.1c0,1.5,0.6,2.4,1.3,2.8
			c-0.9,4-1.8,9.6,0.1,13.3v-25.6C1281.5,536.7,1281.5,537,1281.5,537.3z M1263.4,587.5c0,0-0.4,0.3-1.2,0.9
			c-0.2,0.1-0.3,0.1-0.3,0.3c0,0,0,0.1-0.1,0.1c-2.1,1.9-5.7,5.8-9.3,12.6c-3.6,6.9-7.3,21-9.9,31.3c-0.9-0.9-1.6-1.8-2.5-2.7
			l-33.7-51c19-15.1,32.1-36.3,36.9-60.4c5.5-27.3,0.2-55-15.1-78.1c-31.6-47.8-96.3-61-144.3-29.5c-23.2,15.3-39,38.7-44.5,66
			c-5.5,27.3-0.2,55,15.1,78.1c19.9,30.3,53.2,46.6,87,46.6c16.6,0,33.6-4,49-12.3l4.6,7c-0.3,1-0.4,2.7-0.4,4.5
			c-0.1,1-0.3,2.1-0.3,2.8c0,0.9,0.2,1.8,0.3,2.1c0.9,1.5,4.5,3.3,5.8,4.3c1.3,1,2.5,3.4,2.5,3.4c-0.3,0.6-0.3,1-0.1,1.3
			c1.2,1.2,16.3,22.9,28.6,36.7l27,40.8l12,18c-0.1,8.8-0.4,18.7-0.4,25.9c-0.6,14.2-1.5,35.8-2.1,48.7c7.6-1.9,13.3-9.1,13.3-17.8
			V579C1273.3,580.8,1267.1,584.5,1263.4,587.5z M1142.1,580.3c-45.6,0-82.6-37-82.6-82.6c0-45.6,37-82.6,82.6-82.6
			c45.6,0,82.6,37,82.6,82.6C1224.7,543.4,1187.8,580.3,1142.1,580.3z M1271.8,678.2l-16.2-24.4c4.5-6.7,8.8-14.4,13.2-22.3
			c0.7,3.7,1.6,7.3,2.7,10.3C1273,646,1272.2,669.2,1271.8,678.2z"/>
		<g>
			<ellipse class="st20" cx="1317.7" cy="915.9" rx="82" ry="8.7"/>
			<path class="st21" d="M1276.4,903.8c-0.7,1.3-4,4.5-8.5,6.4c-4.5,2.1-14.2,3-8.8,4.8c5.4,1.8,11.7,0.7,14.8,0.1
				c3.1-0.4,6.3-0.6,10-0.6c4.9,0,4.9-0.3,4.3-5.8C1287.2,901.1,1278.7,899.4,1276.4,903.8z"/>
			<path class="st21" d="M1365.9,900.9c-0.3,1.5,1.9,6.3-1.9,9.7s-12.9,7-6.9,7.2c5.8,0.1,11.5-1.2,14.5-2.7s0.6-3.7,4.3-4.9
				c4.9-1.5,3.9-5.1,1.3-7.3C1374,895.4,1366.8,896,1365.9,900.9z"/>
			<path class="st22" d="M1347.2,744.8c0,0,11.8-34.6-21.6-63.1c0,0-17.8,7.2-32.2,7.9c-11.2,0.7-17.1-0.3-17.1-0.3
				s-0.9,30.7-1,47.4L1347.2,744.8z"/>
			<path class="st22" d="M1279.9,708.4c-2.7,1-3.6,9-3.9,14.4c-0.4,5.4-2.4,61.8-3.1,72c-0.1,1.8-0.1,3.3,0,4.6
				c-0.1,0.9-0.1,1.9-0.1,3c0.7,16.5,4.2,68.8,3.9,100.9c0,0,0.9,2.1,2.5,2.8c2.4,1,6.4,0.4,8.8-0.6c2.2-25.2,18.6-77.2,8.2-102.4
				c-0.4-1.2-0.6-2.4-0.1-3.6c4.9-15.9,14.8-46.5,16.8-58.6C1316.2,720.5,1292.9,703.4,1279.9,708.4z"/>
			<path class="st22" d="M1351.1,807.4c-0.7-0.9-1.3-1.9-1.3-3.1c-0.9-17.2-0.6-56.2-3.3-68.5c-4.5-20.2-27.7-28.6-38.1-19
				c-2.1,1.9-2.5,12.6-0.9,17.8c1.6,5.2,15,62.8,18.1,72.6c0.4,1.3,0.9,2.7,1.5,3.7c0.2,0.9,0.4,1.8,0.7,2.8
				c5.5,15.6,28.3,58.9,37.5,89.5c0,0,0.9,1.2,2.7,1.3c1.8,0.1,6.6-0.6,9.7-2.8C1372.5,876.8,1371.6,829.4,1351.1,807.4z"/>
			<g>
				<g>
					<path class="st23" d="M1257.5,601.3c-5.5,10.8-11.7,39.3-13,43.8c0,0,14.7,3.4,10.5,16.5c7.2-8.7,13.6-20.2,20.2-32.4
						c3.3-6.1,8.1-4.2,8.1-4.2l-14.8-37.3C1268.5,587.5,1262.8,591.3,1257.5,601.3z"/>
					<path class="st23" d="M1217.3,605.4c0,0-10.8,8.1-9.1,9.7c1.6,1.6,33.6,47.5,42,48.1c3.4,0.3,7.9-3.9,8.8-8.2
						c0.3-1.6,0.6-3.3,0.9-5.1C1256.5,636.7,1217.3,605.4,1217.3,605.4z"/>
				</g>
				<g>
					<path class="st24" d="M1257.5,601.3c-5.5,10.8-11.7,39.3-13,43.8c0,0,14.7,3.4,10.5,16.5c7.2-8.7,13.6-20.2,20.2-32.4
						c3.3-6.1,8.1-4.2,8.1-4.2l-14.8-37.3C1268.5,587.5,1262.8,591.3,1257.5,601.3z"/>
					<path class="st25" d="M1217.3,605.4c0,0-10.8,8.1-9.1,9.7c1.6,1.6,33.6,47.5,42,48.1c3.4,0.3,7.9-3.9,8.8-8.2
						c0.3-1.6,0.6-3.3,0.9-5.1C1256.5,636.7,1217.3,605.4,1217.3,605.4z"/>
				</g>
			</g>
			<path class="st26" d="M1200.5,595.3c0,0-0.9,2.5-0.7,5.7l2.4-2.8L1200.5,595.3z"/>
			<g>
				<g>
					<path class="st27" d="M1294.1,520.2c-3,0.9-4.5,4.6-5.5,7.2c-1.2,3.1-1.8,6.4-2.2,9.7c-0.3,2.2-0.4,4.8,0.4,6.9
						c0.4,1,1.2,2.1,1.9,3c0.4,0.6,0.9,1,1.3,1.5c0.6,0.4,1.3,0.6,1.9,0.3c0.9-0.3,1.3-1.5,1.5-2.4c1.6-6.1,3.6-12.4,7-17.8"/>
				</g>
				<g>
					<path class="st28" d="M1291,539.8c0-1.9-2.1-3.3-3.9-1.2c-1.5,1.6-1.9,4.9-1.9,7.2c-0.1,2.8,2.1,3.4,3.9,3.7"/>
				</g>
				<path class="st25" d="M1266.8,588.7c4.6-3.9,14.7-11.1,30.1-10.5c10.6,0.3,39.4,2.1,42.7,9.1c1.6,3.6,3.4,40.8,1,53.5
					c-1.8,9.6-6.4,33.4-6.4,39.3c0,5.7,3.1,8.2,1.6,9.9c-3.3,3.7-25.3,5.2-35.7,5.2c-9.3,0-25-2.4-25.8-5.4
					c-1.2-4.3,1.8-4.2,2.2-8.8c0.4-4.6,1.5-34.5-0.1-39.4c-3-8.8-4.5-23.2-7-29.8C1267.7,607,1262.6,592.2,1266.8,588.7z"/>
				<path class="st29" d="M1332.7,618.7c1,2.2,8.5,14.2,8.5,14.2l0.3,1.5c-0.1,2.5-0.4,4.6-0.7,6.4c-1.8,9.6-6.4,33.4-6.4,39.3
					c0,5.7,3,8.1,1.6,9.9c-2.5,3.4-44.2,11.2-42.1,1.6c0.1-0.9,34.9-27.4,35.2-28.3c1.6-7.6,3-13,3.7-18.7
					C1334.3,631.3,1331.5,616.5,1332.7,618.7z"/>
				<path class="st28" d="M1293.4,565.5c0,0-0.2,12.1-0.6,12.6c-0.4,0.4-2.8,1.6-2.8,1.6s1.6,10.5,4.3,9.7
					c2.7-0.7,19.9-9.6,19.9-9.6s-2.4-1-2.4-1.9c0-1,2.4-19.9,2.4-19.9"/>
				<path class="st28" d="M1305.5,521.5c-2.5,0.7-9.1-0.7-11.1,2.1c-1.8,2.7-3.4,9.4-4.2,11.2c-1.3,3.6-2.2,7.6-3.3,11.4
					c-1.3,4.9-3.4,13.9,1.3,18.1c1.3,1.2,1.9,1.6,3.7,1.9c2.2,0.4,4.5,0.9,6.9,1.3c3.6,0.6,7.5,1.3,10.9,0.3
					c4.6-1.5,7.2-7.9,8.5-12.3l6.9-25L1305.5,521.5z"/>
				<path class="st12" d="M1293.1,594.1c0,0-1,47.2-3,75.9l6.9,9.6l4.8-12c0,0,1.9-34.6-4.5-73.2L1293.1,594.1z"/>
				<path class="st12" d="M1291.4,589.9l0.2,0.6c0.3,1.2,0.7,2.4,1.5,3.4l0,0l4.2,0.3c0,0,2.8-1.5,3.3-3.1c0.4-1.6-4.8-4.3-4.8-4.3
					l-0.6,0.3C1293.7,587.8,1292.5,588.7,1291.4,589.9L1291.4,589.9z"/>
				<path class="st29" d="M1312.1,574.9c0,0,2.7,1.6,4.8,4.9c-2.2,4.9-7.2,13.9-12.6,18c-2.5-6.9-8.7-10.8-8.7-10.8
					S1310.6,584.4,1312.1,574.9z"/>
				<path class="st29" d="M1295.8,586.9c0,0-5.2,2.1-8.4,8.1c0,0-1-8.1,1.2-15c0,0,3.4-4.5,4.6-4.5
					C1292.6,581.2,1295.8,586.9,1295.8,586.9z"/>
				<g>
					<g>
						<path class="st26" d="M1291.6,691.6c-5.2,0.7-7.2,2.7-10.2,5.7c-0.3,0.3-0.4,0.6-0.4,0.9c0,0.4,0.6,0.6,1,0.7
							c2.4,0.4,2.8-1.2,5.1-2.1c1.5-0.6,3.1-1.3,4.6-1.9"/>
					</g>
					<g>
						<path class="st30" d="M1317.1,765.5c-3,0-6-1.5-7.9-4.2l-114-172.5c-2.8-4.3-1.6-10.2,2.7-13c4.3-2.8,10.2-1.6,13,2.7
							l114,172.5c2.8,4.3,1.6,10.2-2.7,13C1320.7,765.1,1318.9,765.5,1317.1,765.5z"/>
						<path class="st31" d="M1324.7,761.6c-0.6,0.9-1.5,1.8-2.4,2.4c-1.6,1-3.4,1.5-5.2,1.5c-3,0-6.1-1.5-7.9-4.2l-114-172.5
							c-2.8-4.3-1.6-10.2,2.7-13c0.4-0.3,1-0.6,1.6-0.9c-2.2,3.1-2.4,7.3-0.3,10.6l114,172.6c1.8,2.7,4.8,4.2,7.9,4.2
							C1322.3,762.4,1323.5,762.1,1324.7,761.6z"/>
						<ellipse class="st32" cx="1146.4" cy="498.5" rx="87.4" ry="87.4"/>
						<path class="st33" d="M1214.3,464.1c-13.6-12.7-31.9-20.5-52-20.5c-42.1,0-76.3,34.2-76.3,76.2c0,12.3,2.8,24,8.1,34.3
							c-14.8-13.8-24-33.6-24-55.5c0-42.1,34.2-76.2,76.2-76.2C1176.1,422.2,1201.9,439.3,1214.3,464.1z"/>
						<path class="st31" d="M1146.4,596.4c-32.1,0-63.6-15.6-82.5-44.2c-14.5-22-19.6-48.3-14.4-74.1c5.2-25.8,20.2-48,42.3-62.5
							c45.4-30,106.8-17.4,136.8,27.9l0,0c14.5,22,19.6,48.3,14.4,74.1s-20.2,48-42.3,62.5C1183.9,591.1,1165.1,596.4,1146.4,596.4z
							 M1146.1,414.8c-15.7,0-31.6,4.5-45.6,13.8c-18.4,12.3-31.2,30.9-35.5,52.6c-4.5,21.7-0.1,43.9,12.1,62.4
							c25.2,38.2,76.8,48.7,115,23.5c18.4-12.3,31.2-30.9,35.5-52.6c4.5-21.7,0.1-43.9-12.1-62.4l0,0
							C1199.6,427.8,1173.1,414.8,1146.1,414.8z"/>
						<path class="st30" d="M1146.4,601.8c-33.7,0-67-16.3-87-46.6c-15.3-23.2-20.7-51-15.1-78.1c5.5-27.3,21.4-50.7,44.5-66
							c47.8-31.6,112.6-18.4,144.3,29.4l0,0c15.3,23.2,20.7,51,15.1,78.1c-5.5,27.3-21.4,50.7-44.5,66
							C1186,596.2,1166,601.8,1146.4,601.8z M1146.1,410.3c-16.5,0-33.3,4.6-48.1,14.5c-19.5,12.9-32.8,32.5-37.5,55.5
							c-4.6,22.9-0.2,46.3,12.7,65.8c26.5,40.3,81,51.4,121.3,24.7c19.5-12.9,32.8-32.5,37.5-55.5c4.6-22.9,0.2-46.3-12.7-65.8l0,0
							C1202.5,424,1174.6,410.3,1146.1,410.3z"/>
					</g>
					<g>
						<path class="st28" d="M1306.4,687.5c-4,0.9-15,4-16.2,4.6c-1.3,0.6-5.8,4-6.9,5.1c-4,4-1.9,6-3.6,11.5
							c-0.1,0.3-0.1,0.6-0.1,0.9c0,0.6,0.7,1,1.6,0.6c0.4,0.7,1.6,0.3,2.2-0.4c0,0.6,0.7,0.9,2.1,0.1c0.7-0.4,0.6-0.3,2.1-1.8
							c1-1,2.4-1.8,4.5-2.7c1.3-0.6,3.1-1.2,4.3-1.9c1.6-1,4.6-1.3,6-6.1c0.3-1,1.3-1.6,2.2-2.2c2.2-1.3,4.5-2.8,6.6-4.2"/>
					</g>
					<path class="st25" d="M1331.6,610.8c1.8,6.1,9,49,9,49l-40.6,29.4l3.4,8.8c0,0,48.6-16.3,52.5-27.4c3.9-11.1,3.6-61.6-9.9-79.2
						c-4.3-5.7-12.9-8.4-12.9-8.4"/>
					<g>
						<path class="st26" d="M1289.9,702.8l-1.6,1.3c-0.6,0.4-1,0.9-1.5,1.5l-1.3,1.6c-0.4,0.6-1,1-1.5,1.6c0.4-0.6,0.7-1.2,1.2-1.8
							c0.4-0.6,0.9-1.2,1.3-1.8c0.4-0.6,1-1,1.6-1.5C1288.7,703.6,1289.3,703.3,1289.9,702.8z"/>
					</g>
					<g>
						<path class="st26" d="M1287.7,700.3c-0.7,0.6-1.2,1.3-1.8,2.1c-0.4,0.7-1,1.5-1.5,2.2c-0.3,0.9-0.7,1.6-1.2,2.5
							c-0.4,0.7-1,1.6-1.5,2.4c0.3-0.9,0.7-1.6,1.2-2.5c0.4-0.7,0.7-1.6,1.2-2.5c0.4-0.9,1-1.6,1.6-2.4
							C1286.2,701.3,1286.9,700.6,1287.7,700.3z"/>
					</g>
					<g>
						<path class="st26" d="M1285.1,698c-0.4,0.7-1,1.5-1.6,2.1s-0.9,1.5-1.2,2.2c-0.3,0.9-0.7,1.6-0.9,2.5
							c-0.3,0.9-0.6,1.6-0.9,2.5c0-0.9,0.3-1.8,0.4-2.7c0.3-0.9,0.6-1.8,0.9-2.5c0.3-0.7,0.7-1.6,1.5-2.4
							C1283.8,699.2,1284.5,698.8,1285.1,698z"/>
					</g>
					<path class="st28" d="M1204.1,605.1c0,0,2.1-5.4,2.7-6.7c0.6-1.3,1.3-2.7,1.8-2.4c0.4,0.3,0.6,0.9,0.3,1.9
						c-0.3,1-1.5,4.6-1.5,4.6"/>
				</g>
				<g>
					<path class="st27" d="M1321,551.1c-1.6-0.9-2.8-1.9-3.9-0.4c-0.6,0.7-0.9,1.9-1.8,2.2s-1.9-0.6-2.1-1.5c-0.3-0.9,0-1.9,0.3-2.8
						c0.6-2.1,1.3-4,1.9-6.1c0.6-1.9,1.2-4.2,0.4-6.1c-0.4-1-1.2-1.8-1.9-2.5c-2.7-2.2-6.1-3.3-9.4-4c-3.4-0.7-6.9-1-10.2-2.1
						c-1.3-0.4-2.7-1-3.9-1.9c-1.8-1.5-2.7-3.9-2.7-6.3c0-2.4,0.7-4.6,1.9-6.7c0.3,0.7,0.6,1.6,1,2.2c0.4-1,1-2.1,1.8-2.8
						c1,5.5,24.3,3.7,29.7,6.1c3.7,1.6,6.9,2.8,6.7,8.8c0.2,0.4,0.4,0.7,0.7,0.9c3.3,3,4.8,6.7,5.2,12.3c0.4,6.7-3.4,14.1-7.3,19.6
						c-0.9,1.3-1.5,2.4-2.8,3.4c-1.3,1-3.7,1.5-5.4,1.2c-1.6-0.3-4.9-0.1-4.9-1.9c0-1.2,2.5-3.4,3.3-4.3"/>
				</g>
				<g>
					<path class="st28" d="M1315,557.4c0,0-0.3,1.2,0.4,2.1c0.6,0.7,1.9,0.6,2.7,0.4c2.4-0.7,4.2-3.1,4.6-5.7c0.6-3-1-5.8-3.7-5.1
						c-1.5,0.4-2.5,2.2-2.5,3.9"/>
				</g>
				<g>
					<path class="st26" d="M1293.5,566.5l7.5,1.3c0,0-2.5,2.8-7.5,2.8"/>
				</g>
			</g>
			<path class="st28" d="M1208.3,613.9c0,0-1.3-2.2-2.7-3.4c-1.3-1.2-4.9-2.8-5.8-4.3c-0.9-1.5,0-9.6,2.4-10.3s4.9,5.4,6,7.6
				s0.3,5.5,0.3,5.5l1.6,2.5C1210.1,611.5,1209.1,612.9,1208.3,613.9z"/>
			<path class="st28" d="M1200.5,598c0,0,1.6-3.9,2.2-5.4c0.6-1.3,1.3-2.7,1.8-2.4c0.4,0.3,0.6,1.2,0.4,2.2c-0.2,1-1.5,4.6-1.5,4.6"
				/>
			<path class="st28" d="M1201.6,600.6c0,0,2.5-6.4,3.3-8.2c0.7-1.6,1.6-3.3,2.1-2.8c0.4,0.4,0.6,1,0.4,2.4
				c-0.3,1.3-1.8,5.5-1.8,5.5"/>
			<path class="st28" d="M1203.2,602.4c0,0,2.1-5.4,2.7-6.7s1.3-2.7,1.8-2.4c0.4,0.3,0.6,0.9,0.3,1.9s-1.5,4.6-1.5,4.6"/>
		</g>
	</g>
	<g>
		<g class="st34">
			<g>
				<g>
					<path class="st35" d="M610.9,664.3c0.3,0.3,0.6,0.6,0.6,0.6C611.3,664.7,611.2,664.4,610.9,664.3z"/>
				</g>
				<g class="st34">
					<g>
						<path class="st35" d="M657.8,547.5l-4.5-1.2c-5.2-1.5-12.4,7.3-15.9,19.8c-3.4,12.4-1.9,23.7,3.3,25.2l-2.5,9.3
							c-0.1,0.1-0.1,0.1-0.3,0.3c-0.1,0-0.3-0.1-0.4-0.1c-0.3,0-0.4,0.4-0.6,1c-1.6,1.5-4,3.7-5.1,5.8c-1,1.8-1.3,5.8-1.3,5.8
							c-4,9-6.9,17.7-13.2,25.9c-1.2-2.5-2.5-5.2-3.9-7.9c0.4-0.6,0.6-1,0.6-1c-4.8-13.3-11.8-33.6-20.7-35.2c-3-0.6-5.8-0.7-8.7-1
							c-0.6-0.7-1.2-1.5-1.5-2.4c0.6-2.2,2.2-7.8,3.3-8.8c1.3-1.2,2.5,2.4,7.3,1c2.1-0.6,3.6-4.8,4.5-9.7c0-0.1,0-0.3,0-0.4
							c1-0.3,2.4-0.6,2.5-0.7c1.5-0.7,1.2-1.3,0.7-2.2c-1-1.9-1.8-4-2.2-5.7c0.2-3.6,0.2-7.2-0.4-10.3c0.1,0.3,0.3,0.6,0.3,0.9
							c2.1-1.3,2.1-4.8,1.9-6.1c-0.4-2.5-1-4.5-2.4-6.4c-5.5-7.9-10.2-8.7-14.1-9.6c-1.9-0.4-4-0.9-6-1v235.1
							c0,5.1,2.1,9.9,5.2,13.2c0-0.1,0-0.3,0-0.4c0-0.9,0-1.8,0-2.7c0-0.4,0-0.9,0-1.3c0-0.3,0-0.7,0-1c0.9,2.8,1.8,5.5,2.7,7.9
							c2.7,1.8,6,2.8,9.4,2.8h13.5c0.1-7.3-0.1-14.8-0.7-22.8c0.1-0.1,0.4-0.3,0.6-0.4c0.3-12.4-0.9-22.3-3.3-39.4
							c-3.6-25.8-7.9-31.6-11.8-42c0-0.3-0.1-0.4-0.3-0.7c0.3-0.4,0.6-1,0.6-1.6c0.1-1.3-1.5-4.9-1.6-6.3
							c-0.7-7.9-1.2-15.3,1.2-19.3c0.9-1.5,1.8-2.8,2.5-4c4.3,3.7,8.8,7.9,13,10.8c0.1,0.1,0.3,0.3,0.6,0.4c0.7,0.6,1.5,0.9,2.1,1.2
							c0.3,0.1,0.6,0.3,0.9,0.4c-0.1-0.1-0.3-0.3-0.6-0.3c1.8,0.6,3.3,0.3,4.3-0.3c0.2,0,0.4,0,0.6,0.1c2.7,0.3,5.2-1,6.6-3.4
							c7.3-12.9,15.7-37,17.1-41.1c2.1-1,5.4-4.5,5.8-6.9c0.1-0.9,0-1.8-0.4-2.5c0.3-1.3,0.3-5.2-1.8-3.4c1.6-2.7,1.2-5.5,0.6-8.5
							c-0.2-0.4-0.3-0.6-0.6-0.6l0.6-2.4c5.2,1.5,12.4-7.3,15.9-19.8C664.7,560.4,663.1,549,657.8,547.5z"/>
					</g>
				</g>
			</g>
		</g>
		<g>
			<g>
				<g>
					<g>
						<path class="st36" d="M606.8,653c1.3-2.4,4.6-4.6,8.2-6.4c-9.6-9-30.9-24-30.9-24l-3.7,17.8c8.4,4,19.9,17.2,28.5,21.7
							C607.3,661.1,603.8,658.3,606.8,653z"/>
					</g>
					<path class="st11" d="M604.4,664.9c-0.1-0.1-0.4-0.3-0.6-0.6C604.1,664.6,604.4,664.9,604.4,664.9z"/>
					<path class="st36" d="M626.3,613.3c-5.8,12.9-9.3,25.5-24,36.7c-0.6,0.4-1.2,1-1.9,1.5c1.5,3.7,3.3,7.2,5.5,8.8
						c4.9,3.7,8.1,0.4,9.3-1c0.1-0.1,0.3-0.4,0.4-0.6c2.4-4,12.1-27,15.4-43.9C626.6,615.6,628.1,609.1,626.3,613.3z"/>
				</g>
				<path class="st36" d="M626.3,613.3c0,0,0.4-4,1.3-5.8c1.9-3.4,7-7.5,7-7.5l-1.6,11.1l-1.9,4.8l-3,0.4L626.3,613.3z"/>
				<g>
					<path class="st20" d="M508.3,916.2c0,4.2,31.9,7.6,71.5,7.6c39.4,0,71.5-3.4,71.5-7.6s-31.9-7.6-71.5-7.6
						C540.4,908.4,508.3,911.9,508.3,916.2z"/>
				</g>
				<g>
					<path class="st37" d="M578,702.8l-28.3-23.2c0,0-12.7,17.8-7.6,34.8c2.5,8.4,5.5,12.4,7,16.5c1.3,3.7,10.5,56.2,9.9,60.1
						c-0.6,3.9-4.9,14.7-6.6,26.1c-1.9,13.6-0.9,58-2.4,69.7c-1.5,11.8,9.4,13.6,10,9.6c4.6-34,17.4-87.3,19-104.2
						C580.7,775.1,579.5,743.9,578,702.8z"/>
					<g>
						<path class="st38" d="M578.6,736.4l-11.8,28c5.2,8.5,8.4,18.7,8.8,29.2c0.3,5.4-0.1,10.8,0.1,16.2c0,0.4,0.1,0.7,0.1,1.2
							c1.5-7.9,2.7-14.7,3-18.9c1.2-12,0.9-31.2,0.1-55.8C578.9,736.3,578.8,736.3,578.6,736.4z"/>
					</g>
					<path class="st37" d="M561.7,885.5c0,0-2.4,12.4-1.6,13.9s3.3,6.1,5.8,7.6c2.7,1.6,8.7,3.7,9.3,4.3c0.4,0.7,0.6,1.8-0.3,2.5
						c-2.2,1.8-6,2.7-8.5,2.2c-8.1-1.2-9-4.8-13.8-5.4c-0.7-0.1-2.2,1.2-4.6,0c-2.2-1.2-3.4-3.1-3.3-5.2c0.3-3.4,2.1-6.3,3.4-8.7
						c1.3-2.5,2.1-14.1,2.1-14.1"/>
					<path class="st21" d="M575.5,914.6c0.6-1,0.7-2.5,0.1-3c-0.7-0.4-3.4-2.2-5.1-3c-1.6-0.7-4-1.3-3.1-0.9
						c0.9,0.4-0.7,2.2-2.2,2.2c-5.1-0.3-8.8-3.6-11.8-4.2c-4.2-1-6-5.8-6.3-6.7c-0.7,0.4-2.5,4.5-3,5.8c-0.3,1.2-0.9,3.1-0.6,4.3
						c0.3,0.7,0.7,2.4,0.4,4.2c0,0,0.9,0.6,3,1c1.3,0.3,3.3,0,3.3,0l0.3-2.7c0,0,1.2,0,2.5,0.1c1.5,0.3,3.9,1.6,4,1.8
						c0.6,0.7,1,1.9,1.8,2.4c2.1,1,4,1.5,6.7,1.6C571.3,918,574.6,916.4,575.5,914.6z"/>
				</g>
				<g>
					<path class="st37" d="M617,912.5c-0.6-0.6-7-1.6-10.2-3c-2.8-1.2-6.4-5.1-7-6.7c-0.7-1.6-0.6-10-0.4-13.5
						c0.6-24.3,5.1-83.4,5.7-97.6c1.2-24.6-2.1-50.1-11.5-89.7l-35.2-27.1c0,0-9.9,18.4-6.6,36c1.9,10.2,10.3,11.7,11.8,15.7
						c1.5,3.9,22.8,67.8,22.8,67.8s-4.2,13.8-4.3,28.9c-0.1,12.9,5.7,51.9,6.7,66.7c0.1,2.8,0.6,9.9-0.3,12c-1,2.7-3.7,5.8-3.6,9.3
						c0.1,1.9,1.5,3.9,4,4.6c2.5,0.7,3.9-0.6,4.8-0.7c4.9-0.1,6.3,3.1,15,3.1c2.7,0,6.4-1.5,8.5-3.6
						C617.8,914.1,617.6,913.1,617,912.5z"/>
					<path class="st21" d="M617.8,915.5c0.4-1,0.4-2.7-0.1-3c-0.9-0.4-3.9-1.8-5.7-2.2c-1.8-0.4-4.3-0.7-3.4-0.3
						c1,0.3-0.4,2.4-1.9,2.5c-5.2,0.6-9.6-2.2-12.7-2.4c-4.5-0.3-6.1-4.9-6.4-5.7c-0.7,0.6-3,4.8-3.1,6.1c-0.2,1.2-0.4,3.3,0,4.5
						c0.3,0.7,1,2.2,1,4c0,0,0.9,0.4,3.3,0.6c1.5,0,3.3-0.4,3.3-0.4v-2.7c0,0,1.2-0.3,2.7-0.1c1.5,0,3.4,0.9,4.3,1.5
						c0.7,0.6,1.5,1.5,2.4,1.6c2.5,0.6,4.2,0.7,6.9,0.6C613.9,919.4,616.9,917.3,617.8,915.5z"/>
				</g>
				<g>
					<path class="st1" d="M550.9,677.6c-9,9.3-14.8,22.6-11.5,37.5c0.9,3.9,5.8,14.4,6.7,18.3c2.2,8.8,6.1,21.9,6.9,32.1
						c13.9,8.4,40.5,5.2,52-2.8c0.3-12.4-0.7-22.3-3.3-39.4c-3.6-25.8-7.9-31.6-11.8-42c-0.4-1.8-1.8-5.5-2.2-7.6"/>
				</g>
				<g>
					<path class="st39" d="M571,591.3c2.2,0.3,2.4,5.7,4.8,6c1.6,0.3,4.6-1,6.3-0.4c8.4,3,8.1,12,10.9,22.5
						c4.8,7.6,6.9,14.8,5.2,19.9c-2.2,6.3-5.2,8.5-8.4,13.9c-2.2,4-1.9,11.5-1.2,19.3c0.1,1.3,1.8,4.9,1.8,6.3
						c-0.1,2.5-3.9,4-8.1,4.9c-9.7,1.9-24.7,0.9-29.7,0.6c-4.2-0.3-8.2-0.4-8.4-2.8c0-1.8,1.5-2.7,1.6-6.1
						c0.1-7.5-1.9-25.6-1.9-31.9c0.1-16.2,0.1-28.2,3.9-43.8"/>
				</g>
				<g>
					<path class="st40" d="M600.1,624.7c-3.1-3.7-7-6.9-10.9-10l-7.6,5.2c5.2,6.7,7.6,15.6,10.9,23.4c1.9-0.1,4.8-1.3,4.8-1.3
						c0.6-1.5,0.4-0.7,1-2.8C599.3,635.8,600.7,630.4,600.1,624.7z"/>
				</g>
				<path class="st37" d="M595,565c0.1-3.7,0.1-7.8-0.6-11.1c-1.3-6.1-3.7-15-14.8-16.8c-10.9-1.8-21.9,2.4-24,10.5
					c-1.9,8.1,0.7,19.2,1.3,25.3c0.6,6.1-2.5,14.1-2.5,14.1l24,5.5c0,0,2.2-8.5,3.4-9.7c1.3-1.2,2.5,2.4,7.3,1.2
					c2.1-0.6,3.6-4.8,4.5-9.7c0-0.1,0-0.3,0.1-0.4c1-0.3,2.4-0.6,2.5-0.7c1.5-0.7,1.2-1.3,0.7-2.2C596.2,568.9,595.4,566.7,595,565z
					"/>
				<g>
					<path class="st30" d="M657.1,572.7c-3.4,12.4-10.6,21.3-15.9,19.8c-5.2-1.5-6.7-12.7-3.3-25.2c3.4-12.4,10.6-21.3,15.9-19.8
						C659.2,549,660.5,560.2,657.1,572.7z"/>
					<path class="st30" d="M626.2,637.6L626.2,637.6c-1.2-0.3-1.9-1.6-1.6-2.8l24.7-88.6l4.5,1.2L629,635.9
						C628.7,637.3,627.4,637.9,626.2,637.6z"/>
					<path class="st41" d="M652.6,571.5c-3.4,12.4-10.6,21.3-15.9,19.8c-5.2-1.5-6.7-12.7-3.3-25.2c3.4-12.4,10.6-21.3,15.9-19.8
						C654.7,547.6,656,559,652.6,571.5z"/>
					<path class="st11" d="M650.5,571c-3,10.9-8.8,18.7-13,17.7c-4.2-1.2-4.9-10.9-1.9-21.9c3-10.9,8.8-18.7,13-17.7
						C652.6,550.3,653.5,560.1,650.5,571z"/>
					<path class="st30" d="M638.3,588.7c-0.3,0-0.6,0-0.9-0.1c-4.2-1.2-4.9-10.9-1.9-21.7c3-10.9,8.8-18.7,13-17.7
						c0.3,0.1,0.6,0.1,0.9,0.4c-4,0-9.3,7.6-12.1,17.7C634.4,577.3,635,586.6,638.3,588.7z"/>
				</g>
				<g>
					<path class="st37" d="M636.2,617.4c1.8-0.3,6.3-4.5,6.6-7.2c0.1-0.9,0-1.8-0.4-2.5c0.3-1.3,0.3-5.2-1.8-3.4
						c1.6-2.7,1.2-5.5,0.6-8.5c-0.2-1-1.3-0.9-1.6,1.5c-0.4,3.3-2.2,5.8-4.9,7.9c-0.4-0.4,0.2-0.9,0.2-2.2c0-1.5-0.7-2.1-1.3-2.1
						c-0.4,0-0.7,1.8-0.9,2.2c-0.7,1.5-1.5,3.1-2.2,4.6c-0.7,1.6-1.2,2.8-1,4.6c0,0.3,0.6,3.3,1.6,2.4"/>
				</g>
				<path class="st37" d="M610.6,654.1c2.1-4.9,8.8-3.4,8.8-3.4c-2.5-1.6-19.6-39.6-19.6-39.6l-13.9,13.6c5.1,6.9,19.3,30.4,21.3,33
					c0.7,0.9,1.6,1.9,2.7,3C609.5,658.7,609.5,656.8,610.6,654.1z"/>
				<path class="st37" d="M629.6,613.8c-2.5,10.3-21.1,35.2-22.8,39.6c0,0-0.3,6.9,5.1,8.1c0.4,0.1,1,0.1,1.5,0.3
					c2.7,0.3,5.2-1,6.6-3.4c8.1-14.1,17.2-41.7,17.2-41.7S634.6,612,629.6,613.8z"/>
				<path class="st39" d="M589.1,595c-9-1.6-17.1-0.3-24.7-5.5c-5.7,6.3,14.1,32.8,17.8,32.8c3.7,0.1,10.8,15.3,12.7,17.4
					c11.7-2.4,14.7-9.6,14.7-9.6C604.9,616.9,597.8,596.7,589.1,595z"/>
				<g>
					<path class="st27" d="M582.5,597.1c-1-2.1-3-3.6-3.7-5.7c-0.7-2.1-0.7-4.8,0-6.9c0.4-1.2,1.5-2.2,2.4-3.3c4-4.5,5.1-7.8,2.5-13
						c-0.9-1.6-1.6-3.4-1.8-5.4c-0.1-1.6-0.1-3.4,1.6-4c1.2-0.4,2.1-0.1,2.7,0.7c0.4,0.7,0.7,6.1,1.9,2.8c1.2-3.1,2.5-3.7,1.3-10.3
						c-0.2-0.7-1-3.9-0.6-4.5c3.4,1.6,5.1,5.4,6,8.1c2.1-1.3,2.2-4.8,1.9-6.1c-0.4-2.5-1-4.5-2.4-6.4c-5.5-7.9-10.2-8.7-14.1-9.6
						c-3.7-0.9-7.6-1.6-11.4-0.9s-8.2,2.8-8.8,5.8c-5.5-0.4-7.6,4.8-8.7,6.6c-1.3,2.7-2.2,5.5-2.7,8.5c-0.6,4.3-0.1,8.8-0.4,13.3
						c-0.3,3.6-1,7.5-3.3,10.3c-2.1,2.8-5.7,3.6-8.1,6.3c-3,3.3-4.2,8.2-3.1,12.6c1,4.3,4.2,8.8,2.2,13.3c-0.6,1.5-1.6,2.7-2.2,4.2
						c-1.3,3.4-0.3,7.6,2.1,10.5c2.4,2.8,6.7,5.7,10.5,6.1c3.6,0.4,6.4,0.4,10-0.4c6.3-1.5,11.8-2.1,17.5-9.1
						c3.3-3.9,0.4-5.4,3.4-9.6c1.6-2.2,4.5-3.9,5.5-6.7c0.9-2.2,0.6-4.9-0.3-7.2C582.5,597.3,582.5,597.1,582.5,597.1z"/>
				</g>
			</g>
		</g>
	</g>
	<g>
		<path class="st1" d="M969,324.9h-93.6c0,0,0-1.3,0.9-3.3c2.4-5.5,11.1-16.9,42.3-22l15.4-3.1C934.1,296.4,969.9,296.3,969,324.9z"
			/>
		<path class="st1" d="M938,324.9h-62.5c0,0,0-1.3,0.9-3.3c2.2-0.7,5.2-0.6,7.3,0c2.2,0.6,3.7,1,3.7,1s32.8,0,40.6,0
			C936.3,322.5,938,324.9,938,324.9z"/>
		<path class="st42" d="M922.5,307.1c-1.3,0.1-2.5-0.3-3.4-1c-0.9-0.7-1.6-1.6-1.9-2.8c-0.1-0.9-0.4-1.8-0.9-2.7
			c-0.3-0.9-0.7-1.8-1.3-2.5l15.7-17.1c0,0,1.6,12.7,4.5,17.1C935.4,297.8,936.3,306.3,922.5,307.1z"/>
		<path class="st26" d="M926.6,290.4c0,0-1.9,9.7-7.5,15.4c-0.9-0.7-1.6-1.6-1.9-2.8c-0.1-0.9-0.4-1.8-0.9-2.7
			C918.9,298.5,924.2,294.3,926.6,290.4z"/>
		<path class="st27" d="M883.1,258.5c0,0-0.6,17.1,7,16.9c7.6-0.3,0-18.9,0-18.9L883.1,258.5z"/>
		<path class="st42" d="M929,277.4c0.3,2.5,0.3,4.8,0.1,6.4c0,0.1,0,0.4-0.1,0.7c0,0.1-0.1,0.4-0.1,0.7
			c-1.8,7.3-11.1,17.7-17.7,18.6c-0.9,0.1-1.6,0.1-2.5,0c-9.1-0.4-14.4-7.9-17.5-15.7c-0.1-0.3-0.1-0.6-0.3-0.7
			c-2.7-7.3-3.6-15-3.9-17.5c0-0.6-0.4-7.3,0.9-9.4c1.5-2.2,19.5-4.3,19.8-4.3s17.7,1.2,17.7,1.2S928.1,268.7,929,277.4z"/>
		<path class="st27" d="M879.5,253.1c0,0,0.6,13.2,22.2,7.9c6-1.5,11.2-2.8,14.1-1.2c4.5,13.9,4.5,20.5,6.1,20.1
			c1.9-0.7-3.3-12.3,3.4-10.9c5.2,0.9-0.3,13.8-0.3,13.8s6.3,0.9,6.4-2.1c0.1-1.8,0.3-26.7-4-32.7c-4.3-6-9.4-5.7-9.4-5.7
			s-5.4-4.5-18.1-0.9c-12.7,3.7-19.5-1-19.5-0.6C880.7,241.2,878.6,244.8,879.5,253.1z"/>
		<path class="st19" d="M969,324.8c0,0-7.2,49-39,73.8c-11.7,9.1-25,22.9-25,22.9l-0.4-0.4c-1.6,1.5-1.6,1.6-2.1,2.2
			c-0.9,1.5-1.6,7.2-3.3,7.8c-0.1,0.1-0.4,0.1-0.7,0.1c-0.6,0.4-1.5,0.9-2.4,1c-1.8,0.3-4.3-0.3-5.1-0.4c-0.6,0.4-1.2,1.2-2.2,1.8
			c-2.2,1.2-4.3,2.7-6.1,3.3c-1.8,0.6-2.1,0-1.6-1.2c0.3-1.2,3.7-3,5.1-4c1.2-0.9,3.3-3.7,4-5.4c0.7-1.6,0.7-2.5,0-2.5
			c-0.7,0-3.1,1.5-4.9,1.8c-1.8,0.4-2.7-0.1-1.8-1.2c0.9-1,3.4-4,6.3-4.9c3-0.7,3.7-0.7,6-2.4c1-0.7,2.2-2.5,3.3-4l-0.7-0.6
			c0,0,19.6-27.4,34.3-48.6c0.3-0.4,0.6-0.9,1-1.3c8.4-16.8,9.1-30.1,9.1-35.4c-1-1.9-2.5-2.4-2.5-2.4L969,324.8z"/>
		<path class="st42" d="M898.7,410.1c0,0-3.1,5.4-5.2,7c-2.1,1.6-3,1.6-5.8,2.4c-3,0.7-5.5,3.7-6.3,4.8c-0.9,1,0,1.5,1.8,1.2
			c1.8-0.4,4.2-1.8,4.9-1.8s0.7,0.9,0,2.5c-0.7,1.6-2.8,4.5-4,5.4c-1.2,0.9-4.6,2.8-5.1,4c-0.4,1.2-0.1,1.6,1.6,1.2
			c1.8-0.6,3.9-2.1,6.1-3.3c1.2-0.6,1.8-1.3,2.2-1.8c0.7,0.1,3.3,0.7,5.1,0.4c0.9-0.1,1.8-0.6,2.4-1c0.3,0,0.4-0.1,0.7-0.1
			c1.6-0.6,2.5-6.3,3.3-7.8c0.7-1.5,7-7.2,7-7.2L898.7,410.1z"/>
		<path class="st1" d="M969,324.8l-11.8-8.1l-6,2.8c-3.7-1.6-10.3-4-10.3-4l-2.8,9.3c0,0,1.5,0.6,2.5,2.4c0,5.2-0.7,18.6-9.1,35.4
			c-0.3,0.4-0.6,0.9-1,1.3c-14.7,21.1-34.3,48.6-34.3,48.6l8.4,7.3c0,0,12.6-11.4,23.5-21.3c3.7-3.3,15-14.2,21.9-26.8
			C961.5,350.6,969,324.8,969,324.8z"/>
		<path class="st35" d="M891.2,330.5c-0.1,0-0.1,0-0.3-0.1c0.3,0.4,0.6,0.7,0.7,0.7c0.3,0.3,0.1,0.6,0.1,0.6
			c-0.4,0.4-0.9,0.4-1.5,0.4c-0.3,0-0.6-0.1-1-0.4c-0.4,0.3-0.7,0.3-1.3,0.3c-0.6,0-1.2-0.6-2.1-1.5c0.1,0.3,0,0.4,0,0.4
			c-0.4,0.4-0.9,0.4-1.5,0.4c-0.6,0-1.3-0.6-2.2-1.6c-0.3-0.3-0.7-0.7-1.2-1.3c-0.4-0.3-0.7-0.6-1.2-0.7c-0.7-0.4-1.5-0.6-1.8-0.6
			h-0.1l0,0c-4.5-0.1-6.4-1.9-11.8-1.9h24.6c0,0-0.1,0-0.1,0.1c-0.3,0.1-0.9,0.1-1.5,0.3c0,0,0,0,0.1,0.1c0.3,0.3,0.6,0.7,0.9,1
			c1,1.2,2.2,2.7,2.5,3c0.3,0.4,0.1,0.6,0.1,0.6C892.1,330.5,891.8,330.5,891.2,330.5z"/>
		<path class="st42" d="M890.1,330.5c-0.1,0-0.1,0-0.3-0.1c0.3,0.4,0.6,0.7,0.7,0.7c0.3,0.3,0.1,0.6,0.1,0.6
			c-0.4,0.4-0.9,0.4-1.5,0.4c-0.3,0-0.6-0.1-1-0.4c-0.4,0.3-0.7,0.3-1.3,0.3s-1.2-0.6-2.1-1.5c0.1,0.3,0,0.4,0,0.4
			c-0.4,0.4-0.9,0.4-1.5,0.4s-1.3-0.6-2.2-1.6c-0.3-0.3-0.7-0.7-1.2-1.3c-0.4-0.3-0.7-0.6-1.2-0.7c-0.7-0.4-1.5-0.6-1.8-0.6h-0.1
			l0,0c-4.5-0.1-6.4-1.9-11.8-1.9c0,0,12.7-6.1,20.4-1.8c0.7,0.1,2.2,0.3,3.3,0.3c2.2,0,1.6,1.2,0.9,1.5c-0.3,0.1-0.9,0.1-1.5,0.3
			c0,0,0,0,0.1,0.1c0.3,0.3,0.6,0.7,0.9,1c1,1.2,2.2,2.7,2.5,3c0.3,0.4,0.1,0.6,0.1,0.6C891.2,330.5,890.7,330.5,890.1,330.5z"/>
		
			<linearGradient id="SVGID_3_" gradientUnits="userSpaceOnUse" x1="885.2267" y1="755.8278" x2="890.0077" y2="755.8278" gradientTransform="matrix(1 0 0 -1 0 1080)">
			<stop  offset="0" style="stop-color:#F7941E"/>
			<stop  offset="1" style="stop-color:#F7941E;stop-opacity:0"/>
		</linearGradient>
		<path class="st43" d="M889.4,324.9c-0.3,0.1-0.9,0.1-1.5,0.3c0,0-1.8-1.8-2.7-2.1c0.7,0.1,2.2,0.3,3.3,0.3
			C890.7,323.4,890.1,324.6,889.4,324.9z"/>
	</g>
</g>
</svg>
