<?xml version="1.0" encoding="utf-8"?>
<!-- Generator: Adobe Illustrator 24.1.2, SVG Export Plug-In . SVG Version: 6.00 Build 0)  -->
<svg version="1.1" id="Layer_1" xmlns="http://www.w3.org/2000/svg" xmlns:xlink="http://www.w3.org/1999/xlink" x="0px" y="0px"
	 viewBox="0 0 1920 1080" style="enable-background:new 0 0 1920 1080;" xml:space="preserve">
<style type="text/css">
	.st0{opacity:0.5;fill:#A7D97A;}
	.st1{fill:#FFFFFF;}
	.st2{fill:#89CC4E;}
	.st3{fill:#52821A;}
	.st4{fill:#6CBF22;}
	.st5{fill:#FECB17;}
	.st6{fill:#FCFCFC;}
	.st7{fill:#A7D97A;}
	.st8{fill:none;stroke:#65A521;stroke-linecap:round;stroke-linejoin:round;stroke-miterlimit:10;}
	.st9{fill:#65A521;}
	.st10{fill:#F1F6F9;}
	.st11{fill:none;stroke:#FECB17;stroke-width:3.2361;stroke-linecap:round;stroke-linejoin:round;stroke-miterlimit:10;}
	.st12{fill:none;stroke:#2C4775;stroke-width:0.25;stroke-linecap:round;stroke-linejoin:round;stroke-miterlimit:10;}
	.st13{fill:none;stroke:#52821A;stroke-width:3.2361;stroke-linecap:round;stroke-linejoin:round;stroke-miterlimit:10;}
	.st14{fill:#3F3F3F;}
	.st15{fill:#BA7F3E;}
	.st16{fill:#E29E4B;}
	.st17{fill:#C7ECFF;}
</style>
<g>
	<path class="st0" d="M1333.6,777.5c-180.4-47.5,265.6-272.9,33.9-455.9s-325.7,72.9-513-69.4c-187.3-142.3-392.9,13-364.7,174.8
		c28.2,161.9,93.6,171.4-6.8,243c-118.2,84.3-86.7,278.7,39.2,335.3c107.5,48.3,247.5,46.4,363.8,48.4c115.3,2,230.8-5.5,344.9-22.4
		c68.2-10.1,158.5-8.9,208.1-66.5C1508.9,883.6,1411.8,798.1,1333.6,777.5z"/>
	<g>
		
			<rect x="1029" y="236.4" transform="matrix(0.9648 0.2631 -0.2631 0.9648 118.951 -263.9475)" class="st1" width="32.3" height="151.6"/>
		<path class="st0" d="M1075.1,249.1c1.5-5.4-2.4-11.2-8.7-12.9c-6.3-1.7-12.6,1.3-14.1,6.7c0,0-7.8,22.7,1.7,38.5
			C1070.3,272.5,1075.1,249.1,1075.1,249.1z"/>
		<g>
			<path class="st2" d="M1040.8,176.8c0,0-48.3,9-48,74.5c0,0,17.4-28.2,48.5-28.2L1040.8,176.8z"/>
			<path class="st2" d="M1120.8,198.6c0,0,37,32.3,3.5,88.6c0,0-0.7-33.1-27.4-48.9L1120.8,198.6z"/>
			<path class="st3" d="M1079.4,247.2l-29-7.9c-1.1-0.3-1.9-1.4-1.9-2.6l0.3-7.5c0.1-1.6,1.6-2.8,3.2-2.3l32.2,8.8
				c1.6,0.4,2.3,2.2,1.6,3.6l-3.5,6.6C1081.8,247,1080.6,247.5,1079.4,247.2z"/>
			<path class="st4" d="M1042.8,159.7c0,0-6.7,42.1,0,71.7c0,0,24.7-4.6,47.7,13c0,0,21.7-17.5,38.1-64.8
				c9.4-27.2,15.8-59.5,14.1-89.3l-64.2-17.5C1063.9,92.7,1049.7,120.9,1042.8,159.7z"/>
			<path class="st3" d="M1116.7,35.7c-8.4,5.5-23.5,17.2-38.2,37.1l64.2,17.5c-1.1-19.1-5.6-37.1-14.7-52.1
				C1125.6,34.3,1120.5,33.2,1116.7,35.7z"/>
			<path class="st2" d="M1084.7,169c0,0-31.9,39.3-26.7,97.9C1058,266.9,1091.9,228.5,1084.7,169z"/>
			
				<ellipse transform="matrix(0.2631 -0.9648 0.9648 0.2631 685.5112 1153.4789)" class="st3" cx="1097.8" cy="128" rx="25.7" ry="25.7"/>
			
				<ellipse transform="matrix(0.4767 -0.8791 0.8791 0.4767 461.9357 1032.0217)" class="st5" cx="1097.8" cy="128" rx="17.8" ry="17.8"/>
		</g>
		<g>
			
				<ellipse transform="matrix(0.263 -0.9648 0.9648 0.263 341.0494 1239.7261)" class="st1" cx="982" cy="396.6" rx="37" ry="37.6"/>
			
				<ellipse transform="matrix(0.2631 -0.9648 0.9648 0.2631 393.5352 1368.9034)" class="st1" cx="1092.8" cy="426.8" rx="33.2" ry="33.6"/>
			
				<ellipse transform="matrix(0.2631 -0.9648 0.9648 0.2631 400.4916 1293.347)" class="st1" cx="1046.9" cy="384.5" rx="25.9" ry="26.3"/>
			
				<ellipse transform="matrix(0.2631 -0.9648 0.9648 0.2631 396.2699 1232.2385)" class="st1" cx="1004.8" cy="356.7" rx="18.1" ry="18.3"/>
			
				<ellipse transform="matrix(0.2631 -0.9648 0.9648 0.2631 434.4206 1277.9688)" class="st1" cx="1053.8" cy="354.6" rx="12.3" ry="12.5"/>
			
				<ellipse transform="matrix(0.2631 -0.9648 0.9648 0.2631 390.0774 1266.8107)" class="st1" cx="1024.3" cy="378.1" rx="21.9" ry="22.2"/>
			
				<ellipse transform="matrix(0.2631 -0.9648 0.9648 0.2631 186.4988 1150.8989)" class="st1" cx="846.7" cy="453.4" rx="66.9" ry="67.9"/>
			
				<ellipse transform="matrix(0.2631 -0.9648 0.9648 0.2631 294.5701 1180.202)" class="st1" cx="919.8" cy="397.3" rx="50.2" ry="50.9"/>
			
				<ellipse transform="matrix(0.2631 -0.9648 0.9648 0.2631 369.9262 1475.6353)" class="st1" cx="1150.9" cy="495.7" rx="70.9" ry="71.9"/>
			
				<ellipse transform="matrix(0.2631 -0.9648 0.9648 0.2631 307.0817 1267.4747)" class="st1" cx="983.2" cy="432.7" rx="50.2" ry="50.9"/>
			
				<ellipse transform="matrix(0.2631 -0.9648 0.9648 0.2631 342.034 1333.3867)" class="st1" cx="1043.8" cy="442.8" rx="56.4" ry="57.2"/>
		</g>
	</g>
	<g>
		<g>
			<path class="st6" d="M530.4,433.6H774c0,0-34.6-44.1-59.1-28.3c-24.5,15.8-12-56.5-59.5-53.1c-47.5,3.4-30.8,81.4-55.5,62.2
				C575.1,395.1,531,417.7,530.4,433.6z"/>
			<path class="st6" d="M1165.3,398.8h243.6c0,0-34.6-44.1-59.1-28.3c-24.5,15.8-12-56.5-59.5-53.1c-47.5,3.4-30.8,81.4-55.5,62.2
				C1210,360.4,1165.9,383,1165.3,398.8z"/>
			<path class="st6" d="M644.5,303.4h202.9c0,0-28.8-36.7-49.3-23.5c-20.4,13.2-10-47.1-49.6-44.3c-39.6,2.8-25.7,67.8-46.3,51.8
				C681.7,271.4,645,290.2,644.5,303.4z"/>
		</g>
		<g>
			<g>
				<g>
					<path class="st7" d="M1193.6,906.1c0,0-15.8-68.5,29.7-122c45.4-53.5,63.2-28.3,109.5-91.2c46.3-62.9,82.7-38.2,70.2,25.4
						c-12.4,63.6-97.3,85.6-98.8,134.3C1302.8,901.3,1193.6,906.1,1193.6,906.1z"/>
					<g>
						<g>
							<path class="st4" d="M1190,903.2c4.7-3.1,9.1-6.6,13.5-10.1c2.2-1.8,4.3-3.7,6.4-5.5c2.1-1.9,4.1-3.8,6.2-5.7
								c8.2-7.7,15.8-15.9,23.1-24.5l2.7-3.2c0.9-1.1,1.8-2.2,2.6-3.3l5.2-6.6l5-6.7c0.8-1.1,1.7-2.2,2.5-3.4l2.4-3.5l4.8-6.9
								l4.5-7.1l4.5-7.1l2.3-3.6l2.4-3.5c6.3-9.4,13.4-18.2,21.1-26.5c7.7-8.3,16.1-15.8,24.9-22.9c8.7-7.2,17.7-14,25.3-22.2
								c3.8-4.1,7.3-8.5,10.2-13.3c2.9-4.8,5.3-9.9,7.2-15.2c-1.7,5.3-4,10.6-6.8,15.5c-2.8,4.9-6.2,9.5-9.9,13.7
								c-7.5,8.5-16.5,15.4-25,22.7c-8.6,7.3-16.9,14.7-24.5,23c-7.6,8.2-14.5,17.1-20.8,26.4l-2.4,3.5l-2.3,3.5l-4.6,7.1l-4.6,7.1
								l-4.8,6.9l-2.4,3.5c-0.8,1.1-1.7,2.3-2.5,3.4l-5.1,6.8c-3.6,4.4-7,8.8-10.8,13c-7.4,8.5-15.2,16.6-23.6,24.2
								c-2.1,1.9-4.2,3.7-6.4,5.6c-2.2,1.8-4.3,3.6-6.6,5.3C1199.4,897,1194.8,900.3,1190,903.2z"/>
						</g>
						<g>
							<path class="st4" d="M1278.3,854.6c-4.4-0.8-8.8,0-13,1c-4.3,1.1-8.4,2.5-12.5,4.2c-4.1,1.6-8.1,3.4-12.1,5.3
								c-4,1.9-7.9,3.9-11.7,6.1l-2.7,1.5l1.3-2.8c2.3-4.9,4.4-9.9,6.3-15c1.8-5.1,3.5-10.3,4.8-15.5c0.7-2.6,1.3-5.3,1.7-7.9
								c0.5-2.7,0.9-5.4,1.1-8.1c0.2-2.7,0.4-5.4,0.3-8.1c-0.1-2.7-0.4-5.4-0.9-8.1c1.5,5.3,1.9,10.8,1.7,16.3
								c-0.2,5.5-1.1,11-2.3,16.3c-1.2,5.4-2.8,10.6-4.6,15.8c-1.9,5.2-3.9,10.2-6.4,15.2l-1.4-1.3c3.9-2.2,7.9-4.1,11.9-6
								c4-1.9,8.1-3.6,12.3-5.1c2.1-0.8,4.2-1.4,6.3-2.1c2.1-0.6,4.3-1.2,6.5-1.6c2.2-0.4,4.4-0.7,6.6-0.8
								C1273.9,853.9,1276.2,854,1278.3,854.6z"/>
						</g>
						<g>
							<path class="st4" d="M1320.2,798.9c-4.4-0.8-8.8,0.1-13,1.3c-2.1,0.6-4.2,1.3-6.2,2.1c-2,0.8-4.1,1.6-6.1,2.5
								c-4,1.8-7.9,3.8-11.8,5.9c-3.8,2.1-7.7,4.3-11.3,6.7l-3.2,2.1l1.8-3.4c2.1-4,4-8.1,5.6-12.3c1.7-4.2,3.1-8.5,4.2-12.9
								c1.1-4.4,1.8-8.8,1.7-13.3c0-4.5-1-9-3.6-12.8c2.9,3.5,4.2,8.2,4.6,12.8c0.3,4.6-0.2,9.2-1.2,13.7c-0.9,4.5-2.3,8.9-3.9,13.2
								c-1.6,4.3-3.5,8.5-5.6,12.6l-1.4-1.3c3.8-2.4,7.6-4.6,11.5-6.7c3.9-2,7.9-4,12.1-5.7c4.1-1.7,8.3-3.2,12.7-4.1
								c2.2-0.5,4.4-0.8,6.6-1C1315.9,798.1,1318.1,798.2,1320.2,798.9z"/>
						</g>
						<g>
							<path class="st4" d="M1364.3,744.9c-1.5-1.5-3.7-2-5.7-2c-2.1,0-4.1,0.4-6.1,0.9c-2,0.5-4,1.2-5.9,1.9
								c-2,0.7-3.9,1.5-5.8,2.4c-7.6,3.4-15,7.5-22.1,11.8l-3.6,2.2l2.2-3.6c1.9-3,3.7-6.2,5.4-9.3c1.7-3.2,3.3-6.4,4.8-9.7
								c1.5-3.3,2.8-6.6,3.8-10.1c1-3.4,1.8-7,1.2-10.6c0.5,1.8,0.6,3.6,0.5,5.4c-0.1,1.8-0.4,3.6-0.8,5.4c-0.4,1.8-0.9,3.5-1.5,5.3
								c-0.6,1.7-1.2,3.4-1.9,5.1c-1.3,3.4-2.9,6.7-4.6,9.9c-1.7,3.2-3.4,6.4-5.4,9.5l-1.4-1.4c3.6-2.3,7.3-4.3,11-6.3
								c3.7-2,7.6-3.8,11.5-5.4c3.9-1.6,7.9-3,12.1-3.8c2.1-0.4,4.2-0.6,6.4-0.5c1.1,0.1,2.1,0.3,3.1,0.7
								C1362.7,743.4,1363.6,744.1,1364.3,744.9z"/>
						</g>
					</g>
				</g>
				<g>
					<path class="st7" d="M756.1,816.4c0,0-22.8-66.4-89.7-87.8c-66.8-21.4-68.6,9.5-141.2-19.4c-72.6-28.9-90.4,11.3-46.2,58.7
						S607,789,634,829.6S756.1,816.4,756.1,816.4z"/>
					<g>
						<g>
							<path class="st4" d="M757.6,812c-5.6,0.1-11.3-0.3-16.9-0.9c-2.8-0.3-5.6-0.7-8.4-1.1c-2.8-0.4-5.6-0.9-8.3-1.3
								c-11.1-2-22-4.8-32.8-8.1c-5.4-1.5-10.7-3.5-16.1-5.3l-7.9-3c-1.3-0.5-2.6-1-3.9-1.5l-3.9-1.7l-7.8-3.3l-7.7-3.6l-7.6-3.6
								l-3.8-1.8l-3.8-1.7c-10.2-4.6-20.8-8.4-31.6-11.4c-10.8-3-21.9-4.9-33-6.6c-11.1-1.7-22.4-2.9-33.2-6
								c-5.4-1.6-10.7-3.7-15.7-6.4c-5-2.7-9.6-5.9-13.9-9.5c4.4,3.4,9.2,6.5,14.2,9.1c5,2.5,10.3,4.5,15.7,5.9
								c10.8,3,22,4,33.2,5.5c11.2,1.4,22.3,3.4,33.2,6.3c10.9,2.9,21.6,6.7,31.9,11.3l3.9,1.7l3.8,1.8l7.6,3.6l7.6,3.6l7.7,3.3
								l3.9,1.7c1.3,0.5,2.6,1,3.9,1.5l7.8,3.1l7.9,2.8c1.3,0.5,2.6,1,4,1.4l4,1.3c10.7,3.5,21.5,6.4,32.5,8.6
								c2.8,0.5,5.5,1.1,8.3,1.6c2.8,0.4,5.5,0.9,8.3,1.3C746.4,811.3,752,811.9,757.6,812z"/>
						</g>
						<g>
							<path class="st4" d="M657,817.5c1.5-1.7,3.3-3,5.3-4.1c1.9-1.1,4-2,6.1-2.8c2.1-0.8,4.2-1.5,6.3-2.1c2.1-0.6,4.3-1.1,6.5-1.6
								c4.3-0.9,8.7-1.7,13.1-2.2c4.4-0.6,8.8-1,13.3-1.2l-0.5,1.8c-4.7-2.9-9.1-6.1-13.4-9.5c-4.3-3.4-8.4-7.1-12.3-11
								c-3.9-3.9-7.5-8.1-10.5-12.7c-3.1-4.6-5.7-9.5-7.1-14.7c1,2.6,2.2,5,3.5,7.4c1.3,2.4,2.9,4.6,4.5,6.8
								c1.6,2.2,3.4,4.2,5.2,6.3c1.8,2,3.7,4,5.7,5.8c3.9,3.8,8.1,7.3,12.3,10.6c4.3,3.3,8.7,6.5,13.3,9.4l2.6,1.7l-3.1,0.2
								c-4.4,0.2-8.8,0.6-13.2,1.1c-4.4,0.5-8.7,1.1-13.1,1.9c-4.3,0.8-8.6,1.7-12.8,3.1C664.5,812.8,660.3,814.5,657,817.5z"/>
						</g>
						<g>
							<path class="st4" d="M591.9,792.4c1.5-1.7,3.3-3,5.3-4c2-1.1,4-1.9,6.1-2.7c4.2-1.5,8.6-2.5,12.9-3.2
								c4.4-0.8,8.8-1.2,13.2-1.6c4.4-0.3,8.9-0.5,13.3-0.5l-0.5,1.9c-4-2.3-7.8-4.9-11.4-7.7c-3.6-2.8-7.1-5.8-10.3-9.1
								c-3.2-3.3-6.1-7-8.3-11c-2.1-4.1-3.5-8.7-2.9-13.3c-0.2,4.6,1.4,9,3.7,12.8c2.3,3.8,5.3,7.3,8.5,10.4c3.2,3.1,6.7,6,10.3,8.7
								c3.6,2.7,7.4,5.2,11.3,7.5l3.3,1.9l-3.8-0.1c-4.4-0.1-8.8,0.1-13.2,0.3c-4.4,0.2-8.8,0.6-13.1,1.2c-2.2,0.3-4.3,0.7-6.5,1.1
								c-2.2,0.4-4.3,0.9-6.4,1.5C599.4,787.8,595.2,789.4,591.9,792.4z"/>
						</g>
						<g>
							<path class="st4" d="M526,769.9c0.1-1,0.6-2.1,1.2-2.9c0.6-0.9,1.4-1.6,2.3-2.2c1.7-1.3,3.7-2.2,5.7-3
								c4-1.5,8.1-2.5,12.3-3.2c4.2-0.7,8.4-1.2,12.6-1.5c4.2-0.3,8.4-0.5,12.7-0.5l-0.4,1.9c-3.3-1.6-6.5-3.4-9.6-5.2
								c-3.1-1.9-6.2-3.8-9.1-6c-1.5-1.1-2.9-2.2-4.3-3.4c-1.4-1.2-2.8-2.4-4-3.7c-1.3-1.3-2.5-2.7-3.5-4.2c-1.1-1.5-2-3.1-2.5-4.9
								c1.4,3.3,4,6,6.7,8.4c2.7,2.4,5.6,4.5,8.6,6.5c3,2,6.1,3.9,9.2,5.6c3.1,1.8,6.3,3.5,9.5,5l3.8,1.8l-4.2,0
								c-8.3,0.1-16.7,0.5-25,1.6c-2.1,0.3-4.1,0.6-6.2,1c-2,0.4-4.1,0.9-6,1.5c-2,0.6-3.9,1.4-5.7,2.5
								C528.1,766.2,526.5,767.8,526,769.9z"/>
						</g>
					</g>
				</g>
				<g>
					<path class="st4" d="M1271.6,568c0,0-24.8-19.3-24.2-50.7c0.6-31.4,13.9-27.7,12.2-62.6c-1.7-34.9,17.9-36.7,31.6-11.1
						s-9.5,57.3,3.7,74.5C1308.1,535.4,1271.6,568,1271.6,568z"/>
					<path class="st4" d="M1242.4,647.4c0,0-23-12.7-26.5-38.7c-3.5-26,7.9-24.6,2-53.2c-6-28.6,10-32.5,24.6-13.2
						c14.6,19.3-0.5,48.4,12.7,61C1268.3,615.9,1242.4,647.4,1242.4,647.4z"/>
					<path class="st4" d="M1197.9,716.7c0,0-19.8-13.9-20.6-38.1c-0.7-24.2,9.7-21.8,7-48.7c-2.7-26.8,12.4-28.9,23.9-9.7
						c11.5,19.2-5.2,44.4,5.7,57.2C1224.8,690.3,1197.9,716.7,1197.9,716.7z"/>
					<path class="st4" d="M1156.9,763.2c0,0-19.8-13.9-20.6-38.1c-0.7-24.2,9.7-21.8,7-48.7c-2.7-26.8,12.4-28.9,23.9-9.7
						c11.5,19.2-5.2,44.4,5.7,57.2C1183.8,736.7,1156.9,763.2,1156.9,763.2z"/>
					<path class="st4" d="M1263.9,621.8c0,0,0.2-23.6,19.2-37.5c19-13.9,22.9-4.3,42.9-21.3c20-17,30-6.1,21,13.8
						c-9,19.8-38.4,20.4-42.7,36.2C1299.9,628.7,1263.9,621.8,1263.9,621.8z"/>
					<path class="st4" d="M1235.7,699.9c0,0,4.7-23.1,26.1-33.1c21.3-10,23.3,0.2,46.2-12.6c22.9-12.8,30.6-0.1,17.9,17.6
						c-12.7,17.7-41.7,12.6-48.9,27.2C1269.7,713.6,1235.7,699.9,1235.7,699.9z"/>
					<path class="st4" d="M1191.5,759.3c0,0,6.4-19.7,26.1-26.3s20.3,2.5,41.5-6.4c21.3-8.8,26.7,2.9,13.9,17.1
						c-12.8,14.2-37.6,6.8-45.4,18.9C1219.9,774.7,1191.5,759.3,1191.5,759.3z"/>
					<g>
						<g>
							<path class="st8" d="M1270.7,486.5c0,0,32.8,232.1-179.3,332.7"/>
							<path class="st8" d="M1252.7,641.2c0,0,20.2-40.7,40.9-46.1"/>
							<path class="st8" d="M1240.8,670.9c0,0,4.7-70.2-8.4-87.2"/>
							<path class="st8" d="M1215.1,716.2c0,0,54.5-46.1,68.8-45.3"/>
							<path class="st8" d="M1194.8,742.3c0,0,9.4-79,0-101.1"/>
							<line class="st8" x1="1168.7" y1="768.6" x2="1241.7" y2="742.3"/>
							<path class="st8" d="M1153.9,780.9c0,0,12.9-52.4,5.3-71"/>
						</g>
					</g>
				</g>
				<g>
					<path class="st4" d="M584.1,606.4c0,0,14.5-27.9,0.7-56.2c-13.7-28.3-24.3-19.3-37.4-51.7c-13.1-32.4-31.6-25.8-33.3,3.2
						c-1.7,29,32.7,48,27.9,69.2C537.3,592.1,584.1,606.4,584.1,606.4z"/>
					<path class="st4" d="M643.9,666.3c0,0,15.5-21.2,7.8-46.2c-7.7-25.1-17.5-19-24.1-47.5c-6.6-28.4-22.7-25.3-27.9-1.7
						c-5.1,23.7,20.8,43.8,14.1,60.7C607.2,648.5,643.9,666.3,643.9,666.3z"/>
					<path class="st4" d="M713.4,710.5c0,0,12.2-21,2.7-43.2c-9.5-22.3-17.9-15.8-26.8-41.2c-8.8-25.5-23.3-21-25.7,1.2
						c-2.4,22.2,23.3,38.1,18.8,54.3C677.9,697.7,713.4,710.5,713.4,710.5z"/>
					<path class="st4" d="M770.1,735.5c0,0,12.2-21,2.7-43.2c-9.5-22.3-17.9-15.8-26.8-41.2c-8.8-25.5-23.3-21-25.7,1.2
						c-2.4,22.2,23.3,38.1,18.8,54.3C734.7,722.7,770.1,735.5,770.1,735.5z"/>
					<path class="st4" d="M613.7,652c0,0-10.1-21.3-33.1-26c-23.1-4.7-22.6,5.7-47.8-1.3c-25.3-7-29.8,7.1-13.3,21.3
						c16.5,14.2,43.5,2.4,53.9,14.9C583.9,673.4,613.7,652,613.7,652z"/>
					<path class="st4" d="M672,711.1c0,0-14-19-37.6-19.1c-23.6-0.1-21,9.9-47.2,8c-26.2-2-27.8,12.7-8.9,23.5
						c18.9,10.7,43.1-6.1,55.8,4.2C646.9,737.8,672,711.1,672,711.1z"/>
					<path class="st4" d="M737,746.4c0,0-14.1-15.2-34.7-12.9c-20.6,2.2-17.4,10.8-40.4,11.7c-23,0.9-23,13.9-5.4,21.3
						c17.6,7.5,37-9.6,49.1-1.9C717.8,772.3,737,746.4,737,746.4z"/>
					<g>
						<g>
							<path class="st8" d="M550.7,532.1c0,0,67.6,224.4,302.4,226.7"/>
							<path class="st8" d="M632,665c0,0-35.4-28.4-56.5-24.7"/>
							<path class="st8" d="M655.2,686.9c0,0-33.8-61.8-29-82.7"/>
							<path class="st8" d="M697.6,717.2c0,0-68.8-18.9-81.4-12.3"/>
							<path class="st8" d="M726.9,732.4c0,0-41.6-67.8-42.4-91.7"/>
							<line class="st8" x1="761.7" y1="745.3" x2="684.4" y2="752"/>
							<path class="st8" d="M780.3,750.3c0,0-33.7-42.2-34.6-62.3"/>
						</g>
					</g>
				</g>
			</g>
			<g>
				<path class="st9" d="M1214.7,805.2H645.9c-5.7,0-10.4-4.6-10.4-10.4V429.3c0-5.7,4.6-10.4,10.4-10.4h568.7
					c5.7,0,10.4,4.6,10.4,10.4v365.6C1225,800.6,1220.4,805.2,1214.7,805.2z"/>
				<rect x="660.1" y="446.1" class="st10" width="540.3" height="343"/>
				<path class="st6" d="M1214.3,806.3c-0.8-0.8-1.9-1.2-3.1-1.2H930.3H649.4c-1.1,0-2.3,0.4-3.1,1.2l-118,109.6
					c-3,2.8-1,7.9,3.1,7.9h398.8h398.8c4.1,0,6.1-5.1,3.1-7.9L1214.3,806.3z"/>
				<path class="st9" d="M1332.9,921.7v21.1c-0.8,1.2-2.1,2-3.8,2H930.3H531.5c-1.5,0-2.8-0.7-3.6-1.8v-19.4"/>
				<g>
					<path class="st9" d="M1236.4,857.6l-37.4-40.6c-0.8-0.9-2-1.4-3.2-1.4H930.3H664.7c-1.2,0-2.3,0.5-3.2,1.4l-37.4,40.6
						c-2.5,2.8-0.6,7.2,3.2,7.2h303h303C1237,864.8,1239,860.4,1236.4,857.6z"/>
					<path class="st7" d="M930.3,876H806.4c-1.7,0-3.3,1-3.9,2.6l-12.4,28.6c-1.2,2.8,0.9,6,3.9,6h136.2h136.2c3.1,0,5.2-3.2,3.9-6
						l-12.4-28.6c-0.7-1.6-2.2-2.6-3.9-2.6H930.3z"/>
				</g>
				<path class="st6" d="M934.8,433.6c0,2.5-2,4.5-4.5,4.5c-2.5,0-4.5-2-4.5-4.5s2-4.5,4.5-4.5C932.8,429,934.8,431.1,934.8,433.6z"
					/>
				
					<image style="overflow:visible;" width="1919" height="994" xlink:href="../../Assets/Screens/Event_Information.png"  transform="matrix(0.2808 0 0 0.2815 660.5679 482.2414)">
				</image>
			</g>
			<g>
				<g>
					<rect x="660.1" y="442.6" class="st7" width="540.3" height="38"/>
					<g>
						<g>
							<g>
								<polygon class="st9" points="703.9,455 703.9,472.4 714.4,463.7 								"/>
								<polygon class="st9" points="693.4,472.4 693.4,455 682.9,463.7 								"/>
							</g>
						</g>
						<path class="st6" d="M1102.7,472.4H741.9c-4.8,0-8.7-3.9-8.7-8.7l0,0c0-4.8,3.9-8.7,8.7-8.7h360.9c4.8,0,8.7,3.9,8.7,8.7l0,0
							C1111.4,468.5,1107.5,472.4,1102.7,472.4z"/>
						<g>
							<path class="st5" d="M1142.3,463.7c0,3-2.4,5.3-5.3,5.3c-3,0-5.3-2.4-5.3-5.3c0-3,2.4-5.3,5.3-5.3
								C1139.9,458.3,1142.3,460.7,1142.3,463.7z"/>
							<path class="st4" d="M1160,463.7c0,3-2.4,5.3-5.3,5.3c-3,0-5.3-2.4-5.3-5.3c0-3,2.4-5.3,5.3-5.3
								C1157.6,458.3,1160,460.7,1160,463.7z"/>
							<path class="st9" d="M1177.7,463.7c0,3-2.4,5.3-5.3,5.3c-3,0-5.3-2.4-5.3-5.3c0-3,2.4-5.3,5.3-5.3
								C1175.3,458.3,1177.7,460.7,1177.7,463.7z"/>
						</g>
					</g>
				</g>
			</g>
			<g>
				<g>
					<path class="st1" d="M1079.6,771.5h154c6.2,0,11.2,4.8,11.2,10.8v25c0,6-5,10.8-11.2,10.8H1077v-46.6H1079.6z"/>
					<path class="st11" d="M1074.5,770.1h158.7c6.4,0,11.5,5.1,11.5,11.5v26.5c0,6.4-5.1,11.5-11.5,11.5h-161.3"/>
					<g>
						<line class="st12" x1="1082" y1="779.6" x2="1234.1" y2="779.6"/>
						<line class="st12" x1="1082.3" y1="787" x2="1234.4" y2="787"/>
						<line class="st12" x1="1082.5" y1="794.4" x2="1234.6" y2="794.4"/>
						<line class="st12" x1="1082.8" y1="801.9" x2="1234.9" y2="801.9"/>
						<line class="st12" x1="1083" y1="809.3" x2="1235.2" y2="809.3"/>
					</g>
				</g>
				<g>
					<path class="st4" d="M1266.6,872.6h-173.8c-2.9,0-5.3-2.4-5.3-5.3v-39c0-2.9,2.4-5.3,5.3-5.3h173.8c2.9,0,5.3,2.4,5.3,5.3v39
						C1271.9,870.2,1269.5,872.6,1266.6,872.6z"/>
					<path class="st12" d="M1263.3,868.3h-167.1c-2.6,0-4.7-2.1-4.7-4.7V832c0-2.6,2.1-4.7,4.7-4.7h167.1c2.6,0,4.7,2.1,4.7,4.7
						v31.5C1267.9,866.2,1265.8,868.3,1263.3,868.3z"/>
				</g>
				<g>
					<g>
						<path class="st1" d="M1263.8,761.6h-154c-6.2,0-11.2-4.8-11.2-10.8v-25c0-6,5-10.8,11.2-10.8h156.6v46.6H1263.8z"/>
						<path class="st13" d="M1268.9,763.1h-158.7c-6.4,0-11.5-5.1-11.5-11.5v-26.5c0-6.4,5.1-11.5,11.5-11.5h161.3"/>
						<g>
							<line class="st12" x1="1261.4" y1="753.6" x2="1109.3" y2="753.6"/>
							<line class="st12" x1="1261.2" y1="746.2" x2="1109" y2="746.2"/>
							<line class="st12" x1="1260.9" y1="738.7" x2="1108.8" y2="738.7"/>
							<line class="st12" x1="1260.7" y1="731.3" x2="1108.5" y2="731.3"/>
							<line class="st12" x1="1260.4" y1="723.9" x2="1108.3" y2="723.9"/>
						</g>
					</g>
					<polygon class="st5" points="1133.5,723.9 1122.9,723.9 1122.9,753.6 1133.5,747.7 1144.1,753.6 1144.1,723.9 					"/>
				</g>
			</g>
			<g>
				<path class="st14" d="M790.5,714.8c4.9-11.6,12.3-25.4-1.9-40.5c-14.2-15.1,17.2-41.3-13.4-61.4c-10.9-7.2-20.1-7.6-27.4-5.2
					c-7.6-3-17.3-3-28.9,4.7c-30.6,20.2,0.7,46.3-13.4,61.4c-14.2,15.1-6.7,28.9-1.9,40.5c4.9,11.6-13.1,11.6,2.6,31.9
					c15.6,20.3,27.9-31.2,40-31.2c0.5,0.3,1,0.5,1.6,0.5c12.1-0.4,24.4,51.5,40.1,31.2C803.6,726.4,785.7,726.4,790.5,714.8z"/>
				<path class="st4" d="M730.2,694c0,0-21-11.5-34.5,15.7c-13.5,27.3-15.5,86.5-5.4,93.7l19.6-42.1L730.2,694z"/>
				<g>
					<g>
						<path class="st15" d="M755.9,704.2c0.1,0,0.3-0.1,0.4-0.1c6.3-2.1,6-8.1,5.7-13.7c-0.3-6.6,0.5-13.4,1.7-19.9
							c0,0-26.3,13.9-26.3,13.9c-0.5,0.2-0.4,2.7-0.4,3.2c-0.5,4.5-2.4,10.1,1.2,13.8C742.3,705.6,750.4,705.8,755.9,704.2z"/>
					</g>
					<g>
						<path class="st16" d="M742,691.2c-3.8,0.1-14.6-0.6-21.2-24.9c-8.1-29.7,5.3-46.2,17.3-49.7s23.5,0,30.6,15.4
							c0,0,5.2,12-1,34.3C761.6,688.6,746.2,691.2,742,691.2z"/>
					</g>
					<g>
						<path class="st16" d="M774.8,655.2c-0.5,3.5-2.8,6.2-5.1,5.8c-2.3-0.3-3.8-3.5-3.2-7c0.5-3.5,2.8-6.2,5.1-5.8
							C773.9,648.6,775.3,651.7,774.8,655.2z"/>
					</g>
					<g>
						<path class="st16" d="M713.3,655.6c-0.8-3.5,0.4-6.7,2.6-7.3c2.3-0.5,4.8,1.9,5.6,5.4c0.8,3.5-0.4,6.7-2.6,7.3
							C716.6,661.5,714.1,659.1,713.3,655.6z"/>
					</g>
				</g>
				<path class="st4" d="M698.7,807.6c0,0,1.2-29.4,3.4-51c2.2-21.6,26.2-62.7,26.2-62.7l7.9-1.3c0,0-3.4,9.6,12.7,9.6
					s13.1-11.9,13.1-11.9l6.4,0.9c0,0,24.9,49.6,25.3,71.8c0.4,22.2,3.5,43.4,3.5,43.4S762.8,830,739,824.8
					C715.2,819.6,698.7,807.6,698.7,807.6z"/>
				<path class="st4" d="M767.1,691.6c0,0,21-11.5,34.5,15.7c13.5,27.3,15.5,86.5,5.4,93.7L787.4,759L767.1,691.6z"/>
				<path class="st12" d="M730.9,696.6c0,0-0.9,11.2,17,10.3c17.9-1,18.2-12.5,18.2-12.5"/>
				<path class="st14" d="M736.1,611.4c0,0-29.2,19.3-22.4,34.6c6.8,15.3,32.5-17.3,32.5-17.3s3.6,14,10.4,8.8
					c6.8-5.1,6.8-5.1,6.8-5.1s-1.1,13.6,9.3,9.9C783.2,638.6,770,603.3,736.1,611.4z"/>
				<path class="st4" d="M802.2,812.8H694.6c-5.2,0-9.5-4.2-9.5-9.5v-38.8h126.5v38.8C811.7,808.5,807.4,812.8,802.2,812.8z"/>
				<path class="st9" d="M762.4,878.8c0,0,22.5,18.9,29.3,15.4c6.8-3.4-11.4-14-12.9-21.1c-1.4-7.2-12.1-7.8-12.1-7.8L762.4,878.8z"
					/>
				<path class="st5" d="M639.8,801.1c0,0,30-5.2,58.9,6.5c28.9,11.6,30.6,21,57.2,16.1c26.6-5,54.4-34.6,91.6-21.7l-103.8,59.4
					L639.8,801.1z"/>
				<path class="st9" d="M715.2,880.5c0,0-22.5,18.9-29.3,15.4c-6.8-3.4,11.4-14,12.9-21.1c1.4-7.2,12.1-7.8,12.1-7.8L715.2,880.5z"
					/>
				<polygon class="st1" points="702.8,825.4 785.9,825.4 806.9,772.1 687.3,772.1 				"/>
				<path class="st5" d="M744.8,846.4c0,0-63.2-50.9-98.7-47.4c-35.5,3.5-26.6,37.9,0,48.9c13.1,5.4,42,13.9,67.9,21.2
					c26.9,7.5,50.8,13.7,50.8,13.7l5.5-17.5L744.8,846.4z"/>
				<path class="st5" d="M735.8,846.4c0,0,63.2-50.9,98.7-47.4c35.5,3.5,26.6,37.9,0,48.9c-26.6,11-118.7,34.9-118.7,34.9l-5-15.8
					L735.8,846.4z"/>
				<path class="st12" d="M741.7,841.9c0.7-0.5,27-19,36.2-24"/>
				<path class="st12" d="M762.4,859.4c0,0-41.4-31.4-56.1-39.6"/>
				<line class="st12" x1="741" y1="876.6" x2="711.3" y2="868.3"/>
				<path class="st17" d="M755,798.8c0,4.4-3.5,7.9-7.9,7.9c-4.4,0-7.9-3.5-7.9-7.9c0-4.4,3.5-7.9,7.9-7.9
					C751.4,790.9,755,794.4,755,798.8z"/>
				<path class="st12" d="M781.6,715.5c0,0,8.4,25.1,12.8,37.9"/>
				<path class="st12" d="M716.5,718.1c0,0-9.6,22.9-14.3,38.4"/>
			</g>
		</g>
	</g>
</g>
</svg>
